<?xml version="1.0" encoding="utf-8"?>
<!-- Generator: Adobe Illustrator 21.1.0, SVG Export Plug-In . SVG Version: 6.00 Build 0)  -->
<svg version="1.1" id="Layer_1" xmlns="http://www.w3.org/2000/svg" xmlns:xlink="http://www.w3.org/1999/xlink" x="0px" y="0px"
	 width="991.2px" height="570px" viewBox="0 0 991.2 570" enable-background="new 0 0 991.2 570" xml:space="preserve">
<g id="Layer_2">
	<g opacity="0.6">
		<ellipse opacity="0.5" fill="#EFF7FE" enable-background="new    " cx="330.1" cy="304.2" rx="272.5" ry="212"/>
		<ellipse opacity="0.15" fill="#DFE6EA" enable-background="new    " cx="587.4" cy="186.5" rx="193.6" ry="150.6"/>
		<ellipse opacity="0.45" fill="#E1F5FB" enable-background="new    " cx="688.8" cy="314.8" rx="266.1" ry="207"/>
		<path opacity="0.3" fill="#D1F0EF" enable-background="new    " d="M313.9,372.3c4.1-2.7,13.6,0.2,25.6,3.8
			c8.6,2.6,12.9,5,21.7,5.5c4.6,0.3,11.5,0.7,13.7-2.1c4.3-5.3-12.3-19.4-11.9-19.6c0.5-0.3,18.6,21.4,27.4,18.9
			c2.2-0.6,3.6-3,6.6-7.9c4-6.6,3-8.2,5.7-10.3c4.7-3.6,9.5-0.4,17.7-3.1s7.2-7.2,16.4-12.4c6-3.4,11.5-4.3,20.3-5.8
			c18-3.1,20.7,0.7,29.6-2.8c10-3.8,7.6-8.9,20.3-16.2c7-4,13.2-5.6,23.4-8.3c10.3-2.7,17.8-3.6,30.9-5.2
			c26.7-3.2,33.2-1.5,36.7-0.3c6.1,2.1,6,3.7,11.9,6.2c13.6,5.8,25.1,2.1,40.7,1.7c21.9-0.5,38.9,6,57.5,13.1
			c9.7,3.7,4.9,2.8,35.4,16.9c20.3,9.4,24.2,10.6,31.8,15.8c8.6,5.9,17.9,12.3,23.4,23c3.4,6.6,2.9,10.2,8.8,20.6
			c4.8,8.3,7.9,11,10.6,12.7c5.5,3.5,8.6,2.8,11.9,6.2c4.9,5,4.8,13.5,0.4,15.5c-2.8,1.3-7-0.3-8.8-1c-5.7-2.2-5.2-4.9-10.6-7.9
			c-1-0.5-8.1-4.4-15.9-2.8c-0.9,0.2-7.8,1.6-8.4,4.5c-1.4,6.8,35.5,9.8,42,26.5c2.4,6.2,0.4,13.8-4,18.9c-7.8,9-21.1,7.9-25.2,16.2
			c-3,6.1,1.2,12.5,2.2,14.1c8.6,13.1,36.3,20,54.8,13.8c11.2-3.8,22.1-13.5,33.6-23.7c5.1-4.6,8.4-7.9,14.1-8.6
			c9.3-1.1,20.8,5.4,23.4,12.7c4.3,12.1-15.9,26.6-30.5,33.4c-16.2,7.5-36.1,7.8-75.1,7.9c-32.1,0.1-48.4,0.1-59.7-6.2
			c-12.7-7.1-24.7-20.9-30.1-27.2c-9.1-10.6-12.4-17.3-21.7-18.9c-9.7-1.7-20.3,3.1-22.5,4.1c-6.7,3.1-6.1,4.8-11.9,7.9
			c-14.6,7.7-30,2.8-32.3,7.6c-1.4,3,3.5,7.3,8.4,11.7c6.5,5.8,10.2,6.1,10.6,8.9c0.7,4.8-8.9,11.9-18.6,12
			c-12.1,0.2-14.6-10.5-29.2-13.1c-2.9-0.5-8.7-1.1-30.9,6.2c-30,9.8-28.8,14-43.8,16.5c-16.7,2.8-31.6,0-46.4-2.8
			c-20.1-3.8-20.3-7.2-35.4-8.6c-20.8-1.9-23.1,4.4-42,2.8c-12.9-1.1-24.2-6-46.9-15.8c-18.7-8.1-20.1-10.1-28.3-13.4
			c-26.2-10.4-44.1-2.3-86.6-1.7c-31.2,0.4-77.4,1-92.8-18.9c-7.8-10.1-7.9-25.7,1.8-34.4c10.9-9.8,27.1-4.5,80.9-8.3
			c43.9-3,55.5-8.1,62.8-14.8c9.9-9.1,11.4-20.8,11.9-24.4C322.5,390.4,307.2,376.6,313.9,372.3z"/>
		<path opacity="0.5" fill="#D1F0EF" enable-background="new    " d="M351.1,459.4c4.1,2.7,13.6-0.2,25.6-3.8
			c8.6-2.6,12.9-5,21.6-5.5c4.6-0.3,11.5-0.7,13.7,2c4.3,5.3-12.3,19.4-11.9,19.6c0.5,0.3,18.6-21.4,27.4-18.9
			c2.2,0.6,3.7,3,6.6,7.9c4,6.6,3,8.2,5.8,10.3c4.7,3.5,9.5,0.4,17.7,3.1s7.2,7.2,16.4,12.4c6,3.3,11.5,4.3,20.3,5.8
			c18,3.1,20.7-0.7,29.6,2.7c10,3.8,7.6,8.9,20.4,16.1c7,4,13.2,5.6,23.4,8.2c10.3,2.7,17.8,3.6,31,5.1c26.7,3.2,33.2,1.5,36.7,0.3
			c6.1-2.1,6-3.7,11.9-6.2c13.6-5.8,25.1-2.1,40.7-1.8c21.9,0.5,38.9-6,57.4-13.1c9.7-3.7,4.9-2.8,35.3-16.9
			c20.3-9.4,24.2-10.6,31.8-15.9c8.6-5.9,17.9-12.4,23.4-23.1c3.4-6.7,2.9-10.2,8.8-20.6c4.7-8.4,7.9-11,10.6-12.7
			c5.5-3.5,8.6-2.8,11.9-6.2c4.9-5,4.8-13.5,0.4-15.5c-2.8-1.3-7,0.3-8.8,1c-5.7,2.2-5.2,4.9-10.6,7.9c-1,0.6-8.1,4.4-15.9,2.8
			c-0.9-0.2-7.8-1.6-8.4-4.5c-1.4-6.8,35.4-9.9,41.9-26.5c2.4-6.2,0.4-13.8-4-18.9c-7.8-9-21.1-7.8-25.2-16.1
			c-3-6.1,1.2-12.5,2.2-14.1c8.5-13.2,36.3-20.1,54.8-13.8c11.2,3.8,22.2,13.5,33.6,23.7c5.2,4.6,8.4,7.9,14.2,8.6
			c9.3,1,20.8-5.4,23.4-12.8c4.2-12.1-15.9-26.6-30.6-33.3c-16.3-7.5-36.1-7.7-75.2-7.8c-32.1-0.1-48.4,0-59.7,6.3
			c-12.7,7.1-24.6,20.9-30,27.2c-9.1,10.6-12.4,17.3-21.6,18.9c-9.7,1.7-20.3-3.1-22.6-4.1c-6.7-3-6.1-4.8-12-7.9
			c-14.6-7.7-30-2.8-32.3-7.5c-1.4-3,3.5-7.3,8.4-11.7c6.5-5.8,10.2-6.1,10.6-9c0.7-4.8-8.9-11.9-18.6-12
			c-12.1-0.2-14.6,10.5-29.1,13.1c-2.9,0.5-8.6,1.1-31-6.1c-30-9.8-28.9-13.9-43.8-16.4c-16.7-2.8-31.6,0-46.4,2.8
			c-20.1,3.8-20.3,7.2-35.3,8.6c-20.8,2-23.1-4.3-42-2.7c-12.9,1.1-24.2,6-46.8,15.9c-18.7,8.1-20,10.2-28.3,13.4
			c-26.2,10.4-44.1,2.3-86.6,1.8c-31.2-0.4-77.4-0.9-92.8,19c-7.8,10.1-7.8,25.7,1.8,34.4c10.9,9.8,27.1,4.5,80.9,8.1
			c43.9,3,55.5,8,62.8,14.7c9.9,9.1,11.5,20.8,12,24.4C359.6,441.3,344.4,455.1,351.1,459.4z"/>
		<path opacity="0.5" fill="#DCE8EF" enable-background="new    " d="M144.1,110.3c-3.5-1.2-2.9-6.7-8.4-8c-4.3-1.1-8,1.4-9.7,0
			c-1.9-1.6,2.5-5.2,0.3-8.3c-1.5-2.1-5-2.7-6.6-2.9c-6-1-9.1,1.8-11.2,0.5c-2.7-1.6,1.5-6.1-1.6-10.7c-1.5-2.2-4.6-4.4-8.4-4.6
			c-4.3-0.2-8,2.2-9.7,4.6c-2.5,3.4,0.4,5.2-1.6,10.2c-1.6,4-3.9,4.2-5.6,8c-1.8,4.1-0.8,7.5-0.3,10.2c2.3,12.2-1.9,26.4-5.6,26.7
			c-2.3,0.2-5.2-4.7-6.6-7c-2.6-4.4-2.7-7.4-4.4-7.5c-1.8-0.2-3.8,2.9-4.7,4.6c-2.2,4.5-2,11.2,3.1,14.8c3.8,2.7,7.4,1.4,8.4,3.4
			c1.7,3.2-7.4,6.8-10.6,16.3c-1.1,3.2-1.4,6.6,0,7c2.1,0.7,6.2-5.6,10-4.9c2.3,0.5,1.6,3,4.7,4.9c4,2.5,8.1,0.1,12.2,1.9
			c3.8,1.7,3,4.9,5.9,11.4c1.7,3.7,4.5,7.3,10.3,14.6c7.7,9.7,8.7,8.8,10.9,13.4c3.2,6.4,1.8,9.2,5.9,12.4c4.3,3.3,8.2,2.2,10.6,5.3
			c2.7,3.4,0.9,8.3-1.2,11.2c-2.6,3.5-8,5.4-18.7,9c-11.9,4-16,4.1-17.8,4.1c-3.4,0-9,0-13.1-2.9c-3.1-2.2-2.4-3.9-5.9-10.7
			c-3.2-6.1-4.7-9.1-8.1-10.9c-4.8-2.6-12.4-2.5-17.8-0.2c-8.4,3.5-9.9,12.1-12.8,29.2c-1.5,8.7-0.7,10.3,0.6,11.2
			c2.8,2,7.9,0.8,32.2-2.9c4.8-0.7,7.7-1.1,10.9,0c6.7,2.4,8.7,9.5,9.4,11.7c1.1,3.9,0.2,5,0.6,12.1c0.3,5.5,0.5,8.5,1.6,11.2
			c3.1,8.2,11.5,7.9,24,18.7c5.6,4.8,11,9.5,13.1,16.8c2.3,7.9-0.2,15.5-1.6,18.7c-3.5,8.4-8.2,9.9-6.9,13.6
			c2.4,6.5,20.6,10.1,25.9,5.8c2.6-2.1,0.3-4.7,3.1-7.5c4-4.1,15.2-5,21.6-1.5c2.2,1.2,4.3,3.2,8.7,20.4c3,11.7,3.2,15.2,7.5,17.7
			c4.6,2.7,10.7,2.6,15.3,2.4c7.1-0.2,8.9-1.8,17.2-3.2c9.9-1.6,11.9,0,20-1c8-1,8.8-2.9,23.1-8.3c21.3-7.9,23.8-5.2,34.7-11.4
			c2.6-1.5,8-4.8,16.2-8.3c5-2.1,8-3,9.4-3.4c2.5-0.7,8-2.2,15.3-2.7c9-0.5,11,1.2,13.7-0.5c4-2.5,0.6-7,5-10.7
			c3.3-2.8,8.7-3.4,12.5-2.9c4,0.5,4.6,1.9,13.4,6.3c6.3,3.1,9.4,4.7,12.5,5.1c5.8,0.8,8.3-1,13.1,0.7c3.6,1.3,3.1,2.5,6.2,3.4
			c3.7,1,5.7-0.3,13.1-1.2c7.9-0.9,7.8,0.3,10.3-0.7c5.6-2.3,3.7-7.5,10-13.1c4.3-3.8,6.2-2.3,9.1-5.1c7.5-7.3-5.1-17.5,1.2-30.1
			c2.6-5.1,7.2-8.6,10-10.7c9.5-7.1,16.2-6.2,20.3-12.1c2.8-4.1,3.4-10.1,0.3-14.6c-4-5.8-12-5.5-13.7-10.9c-1.3-4,2.4-6.5,0.3-8.5
			c-3-2.9-13.3-0.1-14.7,0.2c-11.3,3.1-14.5,9.2-19.1,8c-4.3-1.1-5-7.5-5-7.8c-0.4-4.6,2.6-6.9,6.9-13.4c1.9-3,6.4-9.9,7.8-18.2
			c0.9-5.2,2-11.5-2.5-14.6c-4.6-3.2-10.3,0.4-15.6-2.7c-4.8-2.8-2-6.7-6.2-15.8c-3.9-8.5-10.5-14.3-13.1-16.5
			c-6.2-5.4-7.5-4.2-10-7.5c-2.4-3.2-3.3-7.1,0-24.1c2.6-13.5,4.1-15.9,1.6-18.2c-2.4-2.2-5.8-1.9-26.9-1.2c-18,0.6-24,0.6-29-2.7
			c-4.6-3-6-7.1-6.2-7.8c-2.7-8,5.6-12.3,2.8-18.7c-1.9-4.4-8.3-8.3-13.4-7.8c-6.5,0.7-6.3,8.1-16.9,13.6c-5.9,3.1-13.4,4.7-15,3.2
			c-2.6-2.6,12.3-12,9.1-16.5c-2.4-3.4-13.6-1.9-14.7-1.7c-14.1,2.1-16.1,9.6-27.5,13.9c-17.8,6.6-40.3-1.8-49.4-5.1
			c-19.6-7.3-19.9-14.5-30.3-14.3C167.6,84.6,152.7,113.3,144.1,110.3z"/>
		<path opacity="0.2" fill="#FCC8CE" enable-background="new    " d="M787.7,64c4.3-1.5,3.6-8.2,10.4-9.8c5.3-1.3,9.8,1.7,11.9,0
			c2.3-2-3-6.4-0.4-10.1c1.8-2.6,6.2-3.3,8.1-3.6c7.3-1.2,11.1,2.2,13.8,0.6c3.3-2-1.9-7.5,1.9-13.1c1.8-2.7,5.7-5.5,10.4-5.7
			c5.2-0.2,9.8,2.7,11.9,5.7c3,4.2-0.5,6.4,1.9,12.5c1.9,4.9,4.8,5.1,6.9,9.8c2.2,5,1,9.2,0.4,12.5c-2.8,15,2.4,32.4,6.9,32.8
			c2.8,0.2,6.3-5.7,8.1-8.7c3.2-5.4,3.3-9,5.4-9.2c2.2-0.2,4.7,3.5,5.8,5.7c2.7,5.5,2.4,13.8-3.8,18.2c-4.7,3.3-9,1.7-10.4,4.2
			c-2.1,4,9,8.4,13,20c1.3,3.9,1.7,8.1,0,8.7c-2.5,0.9-7.7-6.9-12.3-6c-2.8,0.6-2,3.6-5.8,6c-4.9,3.1-9.9,0.1-15,2.4
			c-4.6,2.1-3.7,6-7.3,14c-2,4.5-5.6,9-12.7,17.9c-9.5,11.9-10.6,10.8-13.4,16.4c-3.9,7.9-2.2,11.3-7.3,15.2c-5.3,4.1-10,2.7-13,6.6
			c-3.3,4.2-1.1,10.2,1.5,13.7c3.2,4.3,9.8,6.6,23,11c14.6,4.9,19.6,5.1,21.9,5.1c4.2,0,11.1,0,16.1-3.6c3.8-2.7,3-4.8,7.3-13.1
			c3.9-7.5,5.8-11.2,10-13.4c5.9-3.2,15.3-3.1,21.9-0.3c10.3,4.3,12.1,14.8,15.7,35.8c1.8,10.7,0.8,12.6-0.8,13.7
			c-3.5,2.4-9.7,0.9-39.5-3.6c-5.9-0.9-9.5-1.4-13.4,0c-8.2,2.9-10.7,11.7-11.5,14.3c-1.4,4.8-0.2,6.1-0.8,14.9
			c-0.4,6.7-0.7,10.4-1.9,13.7c-3.8,10-14.1,9.7-29.5,23c-6.9,5.9-13.5,11.6-16.1,20.6c-2.8,9.7,0.3,19,1.9,23
			c4.3,10.3,10.1,12.2,8.4,16.7c-3,8-25.3,12.4-31.8,7.2c-3.2-2.6-0.4-5.8-3.8-9.2c-5-5-18.6-6.1-26.5-1.8
			c-2.7,1.5-5.3,3.9-10.7,25.1c-3.7,14.4-3.9,18.6-9.2,21.8c-5.6,3.4-13.2,3.1-18.8,3c-8.7-0.2-10.9-2.3-21.1-3.9
			c-12.2-1.9-14.6,0-24.5-1.2s-10.8-3.6-28.4-10.1c-26.1-9.7-29.2-6.4-42.6-14c-3.2-1.8-9.8-5.9-19.9-10.1
			c-6.1-2.6-9.8-3.7-11.5-4.2c-3.1-0.9-9.9-2.8-18.8-3.3c-11-0.6-13.5,1.5-16.9-0.6c-4.9-3.1-0.7-8.5-6.1-13.1
			c-4-3.4-10.7-4.1-15.3-3.6c-4.9,0.6-5.7,2.4-16.5,7.8c-7.7,3.8-11.6,5.8-15.3,6.3c-7.1,0.9-10.2-1.2-16.1,0.9
			c-4.4,1.6-3.8,3.1-7.7,4.2c-4.5,1.2-7-0.4-16.1-1.5c-9.7-1.2-9.6,0.4-12.7-0.9c-6.9-2.8-4.5-9.3-12.3-16.1
			c-5.2-4.6-7.6-2.8-11.1-6.3c-9.2-9,6.2-21.4-1.5-37c-3.1-6.3-8.8-10.5-12.3-13.1c-11.7-8.7-19.9-7.6-24.9-14.9
			c-3.4-5-4.2-12.4-0.4-17.9c5-7.1,14.8-6.7,16.9-13.4c1.5-4.9-2.9-8-0.4-10.4c3.7-3.6,16.3-0.2,18,0.3c13.8,3.8,17.8,11.3,23.4,9.8
			c5.3-1.4,6.1-9.2,6.1-9.5c0.5-5.6-3.3-8.4-8.4-16.4c-2.4-3.7-7.8-12.2-9.6-22.4c-1.1-6.4-2.4-14.1,3.1-17.9
			c5.7-3.9,12.6,0.5,19.2-3.3c5.9-3.4,2.5-8.2,7.7-19.4c4.8-10.4,12.9-17.5,16.1-20.3c7.6-6.6,9.2-5.2,12.3-9.2c3-4,4-8.7,0-29.5
			c-3.2-16.6-5-19.6-1.9-22.4c2.9-2.6,7.1-2.3,33-1.5c22.1,0.7,29.4,0.8,35.7-3.3c5.6-3.7,7.4-8.7,7.7-9.5c3.3-9.9-6.9-15-3.5-23
			c2.3-5.4,10.2-10.2,16.5-9.5c8,0.8,7.7,9.9,20.7,16.7c7.2,3.8,16.5,5.8,18.4,3.9c3.1-3.2-15.1-14.7-11.1-20.3
			c3-4.2,16.7-2.3,18-2.1c17.3,2.5,19.7,11.8,33.7,17c21.9,8.1,49.5-2.2,60.6-6.3c24.1-8.9,24.5-17.8,37.2-17.6
			C758.9,32.5,777.1,67.6,787.7,64z"/>
		<path opacity="0.6" fill="#D5F1F1" enable-background="new    " d="M209.1,204.5c-2.9,0.5-1.2,6.8-7.3,15.9
			c-3.3,4.9-4.8,4.5-6.8,8.1c-3.8,6.8-0.4,11.4,0.5,21.5c0.9,10.5-1.2,23.4-5.4,24c-3.7,0.5-8.4-10.2-9.5-9.9
			c-1.3,0.4,9.9,14.2,4.5,26.8c-3.8,8.9-14.3,13.2-12.2,15.9c1.9,2.5,10.9-1.5,20,2.5c3,1.3,4.9,3.3,8.6,7.1
			c5.6,5.7,7.4,9.3,11.3,14.8c2.7,3.7,2.2,2.5,13.6,15.5c7.5,8.5,11.3,12.9,14.5,17.3c7.1,9.7,10.7,14.5,10,19
			c-1.4,8.9-13,14.4-19,17.3c-5.9,2.8-12.4,5.9-19.5,4.6c-5.6-1-7.3-3.9-13.2-3.9c-6.2,0-8.8,3.3-11.3,2.1
			c-3.3-1.5,0.7-7.1-3.2-13.4c-0.2-0.4-4.1-6.5-11.3-7.4c-6.7-0.9-12.5,3.1-14.5,4.6c-10,7-8.8,15.6-13.6,37
			c-4.8,21.3-9.8,29.7-5,32.1c3.9,2,12.1-1.1,16.8-4.9c8.1-6.5,3.3-13,11.3-21.5c1-1,8.9-9.4,17.2-8.1c7.2,1.1,12.8,9.1,11.3,15.5
			c-1.8,8.1-13.8,8-18.1,18c-0.4,0.9-3.8,9,1.8,15.5c4.7,5.4,12.9,6.5,19.5,7.4c6.3,0.8,16.8,2.2,21.8-2.1c3-2.6,1.2-4.9,4.5-15.9
			c1.5-5,2.7-8.8,4.5-8.8c2.1-0.1,4.6,5,5.4,9.2c1.4,6.8-1.7,9.5,0.9,12c2.9,2.7,9.7,2.2,14.1,0.7c0.9-0.3,7.9-2.8,8.2-7.8
			c0.2-3.4-3-6.4-6.3-7.8c-5.4-2.2-10,0.6-12.2-1.4c-2.1-1.9,0-6.5,2.7-9.2c3.1-3.1,5.4-2.3,7.7-4.9c2-2.3,1.5-4.2,1.4-12.3
			c-0.1-5.5-0.2-8.3,0-9.2c1.1-5.9,6.3-8.9,15.9-15.9c11.3-8.2,3.4-3.6,24-19c12.2-9.1,18.3-13.7,20.9-14.8
			c10.9-4.6,17.8-3,41.7-3.9c23.7-0.9,35.5-1.3,46.3-4.6c22.3-6.8,19.6-16.4,39-21.9c28.2-8,58.9,5.1,61.7,6.4
			c21.5,9.5,20.9,19.8,39.9,23.6c16.8,3.4,21.4-3.8,38.5-0.7c25.7,4.7,38.3,24.9,41.3,23.3c2.7-1.5-9-17.5-12.2-21.9
			c-10.7-14.6-16.3-19.1-25.8-31.8c-9.2-12.2-13.8-18.4-15.9-25c-7.3-23,9-37.2-1.4-45.2c-5.1-3.9-13.5-3.8-27.2-3.5
			c-16.3,0.3-19.2,4-30.4,2.5c-9.6-1.3-23.2-6.1-24.5-13.1c-1.2-6.7,10.1-10.2,10-20.8c0-2.6-0.1-6.6-3.2-8.1
			c-2.2-1.1-6.4-1.1-33.1,10.6c-7.7,3.4-11.3,5.1-14.5,3.9c-4-1.5-2.8-6-9.1-12c-2.7-2.6-4.5-4.3-7.3-4.6c-5.9-0.7-8.3,5.8-17.7,9.9
			c-7.7,3.3-15.5,2.9-24.9,2.5c-14.8-0.7-14.5-4-23.6-3.9c-16.9,0.2-21.3,11.4-48.5,17.3c-7.4,1.6-12,1.8-15.9,0
			c-7.1-3.4-1.4-12.1-7.3-16.2c-8.8-6.3-28.8,6.8-39.5,0.4c-7.7-4.7-4.5-16-10.4-16.9c-3.8-0.6-5.6,3.8-10.4,3.9
			C219.5,220.8,213.9,203.6,209.1,204.5z"/>
		<ellipse opacity="0.6" fill="#BBE9F9" enable-background="new    " cx="228.1" cy="237.7" rx="15.4" ry="12"/>
		<ellipse fill="#F1FAFA" cx="504.4" cy="133.6" rx="15.4" ry="12"/>
		<ellipse fill="#F1FAFA" cx="855.7" cy="242.9" rx="15.4" ry="12"/>
		<ellipse opacity="0.2" fill="#FCB9C6" enable-background="new    " cx="754.6" cy="111.1" rx="15.4" ry="12"/>
		<ellipse fill="#FCFDFF" cx="168.4" cy="145.5" rx="15.4" ry="12"/>
		<ellipse fill="#F1FAFA" cx="267.9" cy="276.6" rx="8.7" ry="6.7"/>
		<ellipse fill="#F1FAFA" cx="312.2" cy="246.3" rx="8.7" ry="6.7"/>
		<ellipse fill="#F1FAFA" cx="346.3" cy="291.6" rx="8.2" ry="6"/>
		<ellipse opacity="0.2" fill="#FCC8CE" enable-background="new    " cx="457.5" cy="283.3" rx="16.4" ry="9.7"/>
		<ellipse fill="#F1FAFA" cx="522" cy="369.8" rx="5.8" ry="5.6"/>
		<ellipse fill="#F1FAFA" cx="274.6" cy="486.7" rx="5.8" ry="5.6"/>
		<ellipse fill="#F1FAFA" cx="650" cy="476.9" rx="5.8" ry="5.6"/>
		<ellipse fill="#F1FAFA" cx="900.3" cy="331.6" rx="5.8" ry="5.6"/>
		<ellipse fill="#F1FAFA" cx="899.4" cy="225.3" rx="5.8" ry="5.6"/>
		<ellipse fill="#F1FAFA" cx="559.6" cy="327.1" rx="7.7" ry="5.6"/>
		<ellipse fill="#F1FAFA" cx="559.6" cy="278.5" rx="4.8" ry="4.9"/>
		<ellipse fill="#F1FAFA" cx="639.9" cy="255.3" rx="7.2" ry="4.9"/>
		<ellipse fill="#F1FAFA" cx="680.8" cy="214.4" rx="5.8" ry="5.2"/>
		<ellipse fill="#F1FAFA" cx="469.1" cy="215.9" rx="5.8" ry="5.2"/>
		<ellipse fill="#F1FAFA" cx="560" cy="199.5" rx="5.3" ry="3"/>
		<ellipse fill="#F1FAFA" cx="618.3" cy="419.3" rx="5.8" ry="3.4"/>
		<ellipse opacity="0.1" fill="#1DD4FF" enable-background="new    " cx="717.4" cy="406.2" rx="12.8" ry="12"/>
		<ellipse opacity="0.2" fill="#A2EAE0" enable-background="new    " cx="351.2" cy="448.5" rx="14" ry="10.1"/>
		<ellipse opacity="0.5" fill="#D1F0EF" enable-background="new    " cx="163.9" cy="360.1" rx="12.5" ry="9.4"/>
		<ellipse fill="#F1FAFA" cx="90.8" cy="284.1" rx="13.5" ry="12.7"/>
	</g>
</g>
<g id="Layer_1_1_">
	<g>
		<path fill="#32BDB9" d="M565.2,251.8l-1.9-0.7l0.3-0.9l1.9,0.7L565.2,251.8z"/>
		<linearGradient id="SVGID_1_" gradientUnits="userSpaceOnUse" x1="431.55" y1="568.6" x2="431.55" y2="238.6">
			<stop  offset="4.950495e-02" style="stop-color:#FFFFFF"/>
			<stop  offset="5.627356e-02" style="stop-color:#F8FDFD"/>
			<stop  offset="9.939547e-02" style="stop-color:#CFEFEF"/>
			<stop  offset="0.1478" style="stop-color:#A9E3E2"/>
			<stop  offset="0.2006" style="stop-color:#89D9D7"/>
			<stop  offset="0.2589" style="stop-color:#6DD0CD"/>
			<stop  offset="0.3247" style="stop-color:#57C9C6"/>
			<stop  offset="0.4016" style="stop-color:#46C4C0"/>
			<stop  offset="0.4966" style="stop-color:#3BC0BC"/>
			<stop  offset="0.6299" style="stop-color:#34BEBA"/>
			<stop  offset="1" style="stop-color:#32BDB9"/>
		</linearGradient>
		<path fill="url(#SVGID_1_)" d="M357.1,568.6c-0.9-0.9-1.7-1.8-2.5-2.7l0.7-0.7c0.8,0.9,1.7,1.8,2.5,2.7L357.1,568.6z M351.9,563
			c-0.9-1-1.8-2-2.6-3l0.8-0.7c0.9,1,1.7,2,2.6,3L351.9,563z M346.7,556.9c-0.8-1-1.7-2.1-2.5-3.2l0.8-0.6c0.8,1.1,1.6,2.1,2.5,3.1
			L346.7,556.9z M341.7,550.5c-0.8-1.1-1.6-2.2-2.4-3.2l0.8-0.6c0.8,1.1,1.6,2.2,2.4,3.2L341.7,550.5z M337.1,544
			c-0.8-1.1-1.5-2.2-2.2-3.3l0.8-0.5c0.7,1.1,1.5,2.2,2.2,3.3L337.1,544z M332.7,537.2c-0.7-1.1-1.4-2.3-2.1-3.4l0.9-0.5
			c0.7,1.1,1.4,2.3,2.1,3.4L332.7,537.2z M328.6,530.3c-0.7-1.2-1.3-2.3-1.9-3.5l0.9-0.5c0.6,1.2,1.3,2.3,1.9,3.5L328.6,530.3z
			 M324.8,523.2c-0.6-1.2-1.2-2.4-1.8-3.6l0.9-0.4c0.6,1.2,1.2,2.4,1.8,3.6L324.8,523.2z M321.3,516c-0.6-1.2-1.1-2.4-1.6-3.7
			l0.9-0.4c0.5,1.2,1.1,2.4,1.6,3.6L321.3,516z M318.1,508.6c-0.5-1.2-1-2.5-1.5-3.7l0.9-0.4c0.5,1.2,1,2.5,1.5,3.7L318.1,508.6z
			 M315.2,501.2c-0.5-1.3-0.9-2.5-1.3-3.8l1-0.3c0.4,1.3,0.9,2.5,1.3,3.8L315.2,501.2z M312.6,493.6c-0.4-1.3-0.8-2.6-1.2-3.8l1-0.3
			c0.4,1.3,0.8,2.6,1.2,3.8L312.6,493.6z M310.3,485.9c-0.4-1.3-0.7-2.6-1-3.9l1-0.2c0.3,1.3,0.7,2.6,1,3.9L310.3,485.9z
			 M308.3,478.1c-0.3-1.3-0.6-2.6-0.9-3.9l1-0.2c0.3,1.3,0.6,2.6,0.9,3.9L308.3,478.1z M306.6,470.2c-0.3-1.3-0.5-2.7-0.7-4l1-0.2
			c0.2,1.3,0.5,2.6,0.7,3.9L306.6,470.2z M305.3,462.3c-0.2-1.3-0.4-2.7-0.6-4l1-0.1c0.2,1.3,0.4,2.7,0.6,4L305.3,462.3z
			 M304.3,454.3c-0.1-1.3-0.3-2.7-0.4-4l1-0.1c0.1,1.3,0.3,2.7,0.4,4L304.3,454.3z M303.6,446.3c-0.1-1.3-0.2-2.7-0.2-4h1
			c0.1,1.3,0.1,2.7,0.2,4H303.6z M303.2,438.3c0-1.3-0.1-2.7-0.1-4h1c0,1.3,0,2.7,0.1,4H303.2z M304.1,430.3h-1c0-1.3,0-2.7,0.1-4h1
			C304.1,427.6,304.1,428.9,304.1,430.3L304.1,430.3z M304.4,422.3h-1c0.1-1.3,0.2-2.7,0.2-4l1,0.1
			C304.5,419.6,304.4,420.9,304.4,422.3L304.4,422.3z M305,414.3l-1-0.1c0.1-1.3,0.3-2.7,0.4-4l1,0.1
			C305.2,411.6,305,412.9,305,414.3L305,414.3z M305.9,406.3l-1-0.1c0.2-1.3,0.4-2.7,0.6-4l1,0.2C306.2,403.7,306,405,305.9,406.3
			L305.9,406.3z M307.1,398.4l-1-0.2c0.2-1.3,0.5-2.6,0.8-4l1,0.2C307.6,395.8,307.3,397.1,307.1,398.4L307.1,398.4z M308.7,390.6
			l-1-0.2c0.3-1.3,0.6-2.6,0.9-3.9l1,0.2C309.3,388,309,389.2,308.7,390.6L308.7,390.6z M310.6,382.8l-1-0.3
			c0.4-1.3,0.7-2.6,1.1-3.9l1,0.3C311.3,380.2,310.9,381.5,310.6,382.8L310.6,382.8z M312.9,375.2l-1-0.3c0.4-1.3,0.8-2.5,1.3-3.8
			l1,0.3C313.7,372.6,313.3,373.8,312.9,375.2L312.9,375.2z M315.5,367.6l-0.9-0.4c0.5-1.3,0.9-2.5,1.4-3.8l0.9,0.4
			C316.4,365.1,315.9,366.3,315.5,367.6L315.5,367.6z M318.5,360.3l-0.9-0.5c0.6-1.1,1.2-2.3,1.8-3.5l0.9,0.4
			C319.7,357.9,319.1,359.1,318.5,360.3L318.5,360.3z M321.8,352.9l-0.9-0.4c0.5-1.2,1-2.5,1.6-3.7l0.9,0.4
			C322.8,350.4,322.2,351.7,321.8,352.9L321.8,352.9z M325.2,345.7l-0.9-0.5c0.7-1.2,1.3-2.3,1.9-3.5l0.9,0.5
			C326.5,343.3,325.8,344.5,325.2,345.7L325.2,345.7z M329.1,338.7l-0.9-0.5c0.7-1.2,1.4-2.3,2.1-3.4l0.9,0.5
			C330.5,336.4,329.8,337.6,329.1,338.7L329.1,338.7z M333.3,331.9l-0.8-0.5c0.7-1.1,1.4-2.3,2.2-3.4l0.8,0.5
			C334.7,329.6,334,330.8,333.3,331.9L333.3,331.9z M337.7,325.2l-0.8-0.6c0.8-1.1,1.5-2.2,2.3-3.3l0.8,0.6
			C339.2,323,338.4,324.1,337.7,325.2L337.7,325.2z M342.4,318.7l-0.8-0.6c0.8-1.1,1.6-2.1,2.4-3.2l0.8,0.6
			C344,316.6,343.1,317.6,342.4,318.7L342.4,318.7z M347.3,312.4l-0.8-0.6c0.8-1,1.7-2.1,2.5-3.1l0.8,0.6
			C348.9,310.3,348.1,311.4,347.3,312.4L347.3,312.4z M352.4,306.3l-0.8-0.7c0.9-1,1.8-2,2.7-3l0.7,0.7
			C354.2,304.3,353.3,305.3,352.4,306.3L352.4,306.3z M357.8,300.4l-0.7-0.7c0.9-1,1.9-1.9,2.8-2.9l0.7,0.7
			C359.6,298.4,358.7,299.4,357.8,300.4L357.8,300.4z M363.4,294.7l-0.7-0.7c1-0.9,1.9-1.9,2.9-2.8l0.7,0.7
			C365.3,292.8,364.3,293.7,363.4,294.7L363.4,294.7z M369.2,289.1l-0.7-0.7c1-0.9,2-1.8,3-2.7l0.7,0.8
			C371.1,287.3,370.1,288.2,369.2,289.1L369.2,289.1z M375.2,283.8l-0.6-0.8c0.6-0.4,1.3-0.7,2-0.9c0.6-0.2,1.1-0.4,1.6-0.8l0.6,0.8
			c-0.6,0.4-1.3,0.7-2,0.9C376.2,283.2,375.7,283.5,375.2,283.8L375.2,283.8z M381.9,279.7l-0.6-0.8c1.1-0.8,2.1-1.6,3.2-2.4
			l0.6,0.8C384,278,382.9,278.8,381.9,279.7L381.9,279.7z M388.3,274.8l-0.6-0.8c1.1-0.8,2.2-1.6,3.3-2.3l0.6,0.8
			C390.4,273.3,389.3,274,388.3,274.8L388.3,274.8z M394.9,270.3l-0.5-0.8c1.1-0.7,2.2-1.5,3.4-2.2l0.5,0.9
			C397.1,268.9,395.9,269.6,394.9,270.3L394.9,270.3z M401.7,266.1l-0.5-0.9c1.2-0.7,2.3-1.3,3.5-2l0.5,0.9
			C403.9,264.7,402.7,265.4,401.7,266.1L401.7,266.1z M408.7,262.2l-0.5-0.9c1.2-0.7,2.4-1.3,3.6-1.9l0.5,0.9
			c-1.3,0.6-2.5,1.2-3.7,1.8L408.7,262.2z M415.8,258.5l-0.4-0.9c1.2-0.6,2.4-1.2,3.6-1.7l0.4,0.9c-1.3,0.5-2.5,1.1-3.7,1.7
			L415.8,258.5L415.8,258.5z M423,255.2l-0.4-0.9c1.2-0.5,2.5-1.1,3.7-1.6l0.4,0.9c-1.3,0.5-2.6,1-3.8,1.5L423,255.2z M430.4,252.2
			l-0.4-0.9c1.3-0.5,2.5-0.9,3.8-1.4l0.3,0.9c-1.3,0.4-2.6,0.9-3.9,1.3L430.4,252.2z M559.7,249.8c-1.3-0.4-2.5-0.9-3.8-1.3l0.3-1
			c1.3,0.4,2.5,0.8,3.8,1.3L559.7,249.8z M438,249.5l-0.3-0.9c1.3-0.4,2.5-0.8,3.8-1.2l0.3,1c-1.3,0.3-2.7,0.7-3.9,1.1L438,249.5z
			 M552,247.3c-1.3-0.4-2.6-0.7-3.8-1.1l0.3-1c1.3,0.4,2.6,0.7,3.9,1.1L552,247.3z M445.5,247.1l-0.3-1c1.3-0.4,2.6-0.7,3.9-1.1
			l0.3,1C448.1,246.4,446.8,246.7,445.5,247.1L445.5,247.1z M544.3,245.2c-1.3-0.3-2.6-0.6-3.9-0.9l0.2-1c1.3,0.3,2.6,0.6,3.9,0.9
			L544.3,245.2z M453.2,245l-0.2-1c1.3-0.3,2.6-0.6,3.9-0.9l0.2,1C455.8,244.4,454.5,244.7,453.2,245z M536.5,243.4
			c-1.3-0.3-2.6-0.5-3.9-0.8l0.2-1c1.3,0.2,2.7,0.5,4,0.8L536.5,243.4z M461,243.3l-0.2-1c1.3-0.3,2.6-0.5,4-0.7l0.2,1
			C463.6,242.8,462.3,243.1,461,243.3z M528.6,242c-1.3-0.2-2.7-0.4-4-0.6l0.1-1c1.3,0.2,2.7,0.4,4,0.6L528.6,242z M468.9,241.9
			l-0.1-1c1.3-0.2,2.7-0.4,4-0.6l0.1,1C471.5,241.5,470.2,241.7,468.9,241.9L468.9,241.9z M520.7,240.9c-1.3-0.2-2.7-0.3-4-0.4
			l0.1-1c1.3,0.1,2.7,0.3,4,0.4L520.7,240.9z M476.8,240.8l-0.1-1c1.3-0.2,2.7-0.3,4-0.4l0.1,1C479.5,240.6,478.1,240.7,476.8,240.8
			L476.8,240.8z M512.7,240.1c-1.3-0.1-2.7-0.2-4-0.3v-1c1.3,0.1,2.7,0.2,4,0.3V240.1z M484.7,240.1l-0.1-1c1.3-0.1,2.7-0.2,4-0.2v1
			C487.4,240,486.1,240,484.7,240.1L484.7,240.1z M504.7,239.7c-1.3,0-2.7-0.1-4-0.1v-1c1.3,0,2.7,0,4,0.1V239.7z M492.7,239.7v-1
			c1.3,0,2.7-0.1,4-0.1v1C495.4,239.7,494.1,239.7,492.7,239.7L492.7,239.7z"/>
		<linearGradient id="SVGID_2_" gradientUnits="userSpaceOnUse" x1="527.2" y1="569.2" x2="527.2" y2="249.6">
			<stop  offset="4.950495e-02" style="stop-color:#FFFFFF"/>
			<stop  offset="5.627356e-02" style="stop-color:#F8FDFD"/>
			<stop  offset="9.939547e-02" style="stop-color:#CFEFEF"/>
			<stop  offset="0.1478" style="stop-color:#A9E3E2"/>
			<stop  offset="0.2006" style="stop-color:#89D9D7"/>
			<stop  offset="0.2589" style="stop-color:#6DD0CD"/>
			<stop  offset="0.3247" style="stop-color:#57C9C6"/>
			<stop  offset="0.4016" style="stop-color:#46C4C0"/>
			<stop  offset="0.4966" style="stop-color:#3BC0BC"/>
			<stop  offset="0.6299" style="stop-color:#34BEBA"/>
			<stop  offset="1" style="stop-color:#32BDB9"/>
		</linearGradient>
		<path fill="url(#SVGID_2_)" d="M625.9,569.2l-0.7-0.7c1-0.9,1.9-1.8,2.9-2.8l0.7,0.7C627.8,567.3,626.9,568.3,625.9,569.2z
			 M631.6,563.5l-0.7-0.7c0.9-1,1.8-1.9,2.8-2.9l0.7,0.7C633.5,561.6,632.5,562.6,631.6,563.5z M637.1,557.7l-0.8-0.7
			c0.9-1,1.8-2,2.6-3l0.8,0.7C638.8,555.7,637.9,556.7,637.1,557.7L637.1,557.7z M642.3,551.5l-0.8-0.6c0.8-1,1.7-2.1,2.5-3.1
			l0.8,0.6C643.9,549.5,643.1,550.5,642.3,551.5L642.3,551.5z M647.2,545.2l-0.8-0.6c0.8-1.1,1.6-2.1,2.3-3.2l0.8,0.6
			C648.8,543.1,648,544.1,647.2,545.2L647.2,545.2z M651.8,538.7l-0.8-0.6c0.7-1.1,1.5-2.2,2.2-3.3l0.8,0.5
			C653.4,536.4,652.6,537.6,651.8,538.7L651.8,538.7z M656.2,531.9l-0.8-0.5c0.7-1.1,1.4-2.3,2.1-3.4l0.9,0.5
			C657.6,529.6,656.9,530.8,656.2,531.9L656.2,531.9z M660.3,525l-0.9-0.5c0.7-1.2,1.3-2.3,1.9-3.5l0.9,0.5
			C661.6,522.7,660.9,523.8,660.3,525L660.3,525z M664,517.9l-0.9-0.5c0.6-1.2,1.2-2.4,1.8-3.6l0.9,0.4
			C665.2,515.5,664.6,516.7,664,517.9L664,517.9z M667.5,510.7l-0.9-0.4c0.5-1.2,1.1-2.4,1.6-3.7l0.9,0.4
			C668.6,508.2,668,509.5,667.5,510.7L667.5,510.7z M670.6,503.3l-0.9-0.4c0.5-1.2,1-2.5,1.4-3.7l0.9,0.4
			C671.6,500.8,671.1,502.1,670.6,503.3L670.6,503.3z M673.4,495.8l-0.9-0.3c0.4-1.3,0.9-2.5,1.3-3.8l1,0.3
			C674.3,493.3,673.9,494.5,673.4,495.8L673.4,495.8z M675.9,488.2l-1-0.3c0.4-1.3,0.8-2.5,1.1-3.8l1,0.3
			C676.7,485.6,676.3,486.9,675.9,488.2L675.9,488.2z M678,480.4l-1-0.2c0.3-1.3,0.6-2.6,0.9-3.9l1,0.2
			C678.7,477.8,678.4,479.1,678,480.4L678,480.4z M679.8,472.6l-1-0.2c0.3-1.3,0.5-2.6,0.8-3.9l1,0.2
			C680.4,470,680.1,471.3,679.8,472.6L679.8,472.6z M681.3,464.7l-1-0.2c0.2-1.3,0.4-2.6,0.6-3.9l1,0.1
			C681.7,462.1,681.5,463.4,681.3,464.7L681.3,464.7z M682.4,456.8l-1-0.1c0.2-1.3,0.3-2.7,0.4-4l1,0.1
			C682.7,454.1,682.6,455.5,682.4,456.8L682.4,456.8z M683.2,448.8l-1-0.1c0.1-1.3,0.2-2.7,0.3-4h1
			C683.4,446.1,683.3,447.5,683.2,448.8L683.2,448.8z M683.6,440.8h-1c0-1.3,0.1-2.7,0.1-4h1C683.7,438.1,683.7,439.4,683.6,440.8
			L683.6,440.8z M682.7,432.8c0-1.3,0-2.7-0.1-4h1c0,1.3,0.1,2.7,0.1,4H682.7z M682.4,424.8c-0.1-1.3-0.2-2.7-0.3-4l1-0.1
			c0.1,1.3,0.2,2.7,0.3,4L682.4,424.8z M681.8,416.8c-0.1-1.3-0.3-2.7-0.4-4l1-0.1c0.2,1.3,0.3,2.7,0.4,4L681.8,416.8z M680.9,408.9
			c-0.2-1.3-0.4-2.6-0.6-4l1-0.2c0.2,1.3,0.4,2.7,0.6,4L680.9,408.9z M679.6,401c-0.2-1.3-0.5-2.6-0.8-3.9l1-0.2
			c0.3,1.3,0.5,2.6,0.8,3.9L679.6,401z M678,393.2c-0.3-1.3-0.6-2.6-0.9-3.9l1-0.2c0.3,1.3,0.7,2.6,1,3.9L678,393.2z M676,385.4
			c-0.4-1.3-0.7-2.6-1.1-3.8l1-0.3c0.4,1.3,0.8,2.6,1.1,3.9L676,385.4z M673.7,377.8c-0.4-1.3-0.8-2.5-1.3-3.8l0.9-0.3
			c0.4,1.3,0.9,2.5,1.3,3.8L673.7,377.8z M671,370.2c-0.5-1.3-1-2.5-1.5-3.7l0.9-0.4c0.5,1.2,1,2.5,1.5,3.8L671,370.2z M668,362.8
			c-0.5-1.2-1.1-2.5-1.6-3.7l0.9-0.4c0.6,1.2,1.1,2.5,1.6,3.7L668,362.8z M664.7,355.5c-0.6-1.2-1.2-2.4-1.8-3.6l0.9-0.5
			c0.6,1.2,1.2,2.4,1.8,3.6L664.7,355.5z M661.1,348.3c-0.6-1.2-1.3-2.4-1.9-3.5l0.9-0.5c0.7,1.2,1.3,2.3,1.9,3.5L661.1,348.3z
			 M657.2,341.3c-0.7-1.1-1.4-2.3-2.1-3.4l0.8-0.5c0.7,1.1,1.4,2.3,2.1,3.4L657.2,341.3z M653,334.5c-0.7-1.1-1.5-2.2-2.2-3.3
			l0.8-0.6c0.8,1.1,1.5,2.2,2.2,3.4L653,334.5z M648.5,327.9c-0.8-1.1-1.6-2.2-2.4-3.2l0.8-0.6c0.8,1.1,1.6,2.2,2.4,3.2L648.5,327.9
			z M643.7,321.5c-0.8-1.1-1.6-2.1-2.5-3.1l0.8-0.6c0.8,1,1.7,2.1,2.5,3.1L643.7,321.5z M638.7,315.3c-0.9-1-1.7-2-2.6-3l0.8-0.7
			c0.9,1,1.8,2,2.6,3L638.7,315.3z M633.3,309.3c-0.9-1-1.8-1.9-2.8-2.9l0.7-0.7c0.9,1,1.9,1.9,2.8,2.9L633.3,309.3z M627.8,303.6
			c-0.9-0.9-1.9-1.9-2.9-2.8l0.7-0.7c1,0.9,1.9,1.9,2.9,2.8L627.8,303.6z M371.4,301.6l-0.7-0.7c1-0.9,1.9-1.8,2.9-2.7l0.7,0.7
			C373.4,299.8,372.4,300.7,371.4,301.6L371.4,301.6z M622,298.2c-1-0.9-2-1.8-3-2.6l0.7-0.8c1,0.9,2,1.8,3,2.7L622,298.2z
			 M377.3,296.2l-0.7-0.8c1-0.9,2-1.8,3-2.6l0.6,0.8C379.3,294.5,378.3,295.4,377.3,296.2L377.3,296.2z M616,292.9
			c-1-0.8-2.1-1.7-3.1-2.5l0.6-0.8c1,0.8,2.1,1.7,3.1,2.5L616,292.9z M383.5,291.1l-0.6-0.8c1-0.8,2.1-1.7,3.2-2.5l0.6,0.8
			C385.5,289.4,384.5,290.3,383.5,291.1z M609.7,288c-1.1-0.8-2.1-1.6-3.2-2.4l0.6-0.8c1.1,0.8,2.2,1.6,3.2,2.4L609.7,288z
			 M389.8,286.2l-0.6-0.8c1.1-0.8,2.2-1.6,3.3-2.3l0.6,0.8C392,284.7,390.9,285.4,389.8,286.2z M603.3,283.3
			c-1.1-0.8-2.2-1.5-3.3-2.2l0.5-0.8c1.1,0.7,2.2,1.5,3.3,2.2L603.3,283.3z M396.3,281.6l-0.6-0.8c1.1-0.7,2.2-1.5,3.4-2.2l0.5,0.8
			C398.6,280.2,397.4,280.9,396.3,281.6L396.3,281.6z M596.6,278.9c-1.1-0.7-2.3-1.4-3.4-2.1l0.5-0.9c1.1,0.7,2.3,1.4,3.4,2.1
			L596.6,278.9z M403.1,277.3l-0.5-0.9c1.1-0.7,2.3-1.3,3.5-2.1l0.5,0.9C405.4,276,404.2,276.7,403.1,277.3L403.1,277.3z
			 M589.8,274.8c-1.2-0.7-2.3-1.3-3.5-1.9l0.5-0.9c1.2,0.7,2.3,1.3,3.5,1.9L589.8,274.8z M410,273.3l-0.5-0.9
			c1.2-0.7,2.4-1.3,3.5-1.9l0.5,0.9C412.3,272.1,411.2,272.7,410,273.3z M582.8,271c-1.2-0.6-2.4-1.2-3.6-1.8l0.4-0.9
			c1.2,0.6,2.4,1.2,3.6,1.8L582.8,271z M417.1,269.6l-0.4-0.9c1.2-0.6,2.4-1.2,3.6-1.7l0.4,0.9C419.5,268.5,418.3,269.1,417.1,269.6
			z M575.6,267.5c-1.2-0.6-2.4-1.1-3.6-1.6l0.4-0.9c1.2,0.5,2.4,1.1,3.7,1.6L575.6,267.5z M424.3,266.2l-0.4-0.9
			c1.2-0.5,2.5-1.1,3.7-1.6l0.4,0.9C426.8,265.2,425.6,265.7,424.3,266.2L424.3,266.2z M568.3,264.3c-1.2-0.5-2.5-1-3.7-1.5l0.4-0.9
			c1.3,0.5,2.5,1,3.7,1.5L568.3,264.3z M431.8,263.2l-0.4-0.9c1.2-0.5,2.5-1,3.8-1.4l0.3,0.9C434.2,262.2,433,262.7,431.8,263.2
			L431.8,263.2z M560.9,261.5c-1.3-0.5-2.5-0.9-3.8-1.3l0.3-0.9c1.3,0.4,2.5,0.9,3.8,1.3L560.9,261.5z M439.3,260.5l-0.3-0.9
			c1.3-0.4,2.5-0.8,3.8-1.2l0.3,1C441.8,259.6,440.5,260,439.3,260.5L439.3,260.5z M553.3,258.9c-1.3-0.4-2.5-0.8-3.8-1.1l0.3-1
			c1.3,0.4,2.6,0.7,3.8,1.1L553.3,258.9z M446.9,258l-0.3-1c1.3-0.4,2.6-0.7,3.9-1.1l0.3,1C449.4,257.3,448.1,257.6,446.9,258z
			 M545.6,256.7c-1.3-0.3-2.6-0.7-3.9-1l0.2-1c1.3,0.3,2.6,0.6,3.9,1L545.6,256.7z M454.6,255.9l-0.2-1c1.3-0.3,2.6-0.6,3.9-0.9
			l0.2,1C457.2,255.3,455.9,255.7,454.6,255.9L454.6,255.9z M537.8,254.8c-1.3-0.3-2.6-0.5-3.9-0.8l0.2-1c1.3,0.3,2.6,0.5,3.9,0.8
			L537.8,254.8z M462.4,254.2l-0.2-1c1.3-0.3,2.7-0.5,4-0.7l0.2,1C465,253.7,463.7,254,462.4,254.2L462.4,254.2z M530,253.3
			c-1.3-0.2-2.6-0.4-3.9-0.6l0.2-1c1.3,0.2,2.7,0.4,4,0.6L530,253.3z M470.3,252.8l-0.1-1c1.3-0.2,2.7-0.4,4-0.6l0.1,1
			C472.9,252.4,471.6,252.6,470.3,252.8L470.3,252.8z M522.1,252.1c-1.3-0.2-2.7-0.3-4-0.5l0.1-1c1.3,0.1,2.7,0.3,4,0.5L522.1,252.1
			z M478.2,251.7l-0.1-1c1.3-0.1,2.7-0.3,4-0.4l0.1,1C480.9,251.5,479.6,251.6,478.2,251.7L478.2,251.7z M514.1,251.3
			c-1.3-0.1-2.7-0.2-4-0.3l0.1-1c1.3,0.1,2.7,0.2,4,0.3L514.1,251.3z M486.2,251l-0.1-1c1.3-0.1,2.7-0.2,4-0.2v1
			C488.9,250.9,487.5,251,486.2,251L486.2,251z M506.2,250.8c-1.3-0.1-2.7-0.1-4-0.1v-1c1.3,0,2.7,0,4,0.1V250.8z M494.2,250.7v-1
			c1.3,0,2.7,0,4-0.1v1C496.9,250.7,495.5,250.7,494.2,250.7L494.2,250.7z"/>
		<path fill="#32BDB9" d="M367.1,305.9l-0.7-0.7l1.4-1.4l0.7,0.7L367.1,305.9z"/>
		<polygon fill="#32BDB9" points="563.2,254.5 567.5,247.2 571.7,254.5 		"/>
		<polygon fill="#32BDB9" points="371.1,307 363.3,310.2 364.5,301.9 		"/>
		<polygon fill="#32BDB9" points="492.9,171.5 497.2,163.7 501.8,171.4 		"/>
		<path fill="#32BDB9" d="M497.3,315.7v-4h1v4H497.3z M497.3,307.7v-4h1v4H497.3z M497.3,299.7v-4h1v4H497.3z M497.3,291.7v-4h1v4
			H497.3z M497.3,283.7v-4h1v4H497.3z M497.3,275.7v-4h1v4H497.3z M497.3,267.7v-4h1v4H497.3z M497.3,259.7v-4h1v4H497.3z
			 M497.3,251.7v-4h1v4H497.3z M497.3,243.7v-4h1v4H497.3z M497.3,235.7v-4h1v4H497.3z M497.3,227.7v-4h1v4H497.3z M497.3,219.7v-4
			h1v4H497.3z M497.3,211.7v-4h1v4H497.3z M497.3,203.7v-4h1v4H497.3z M497.3,195.7v-4h1v4H497.3z M497.3,187.7v-4h1v4H497.3z
			 M497.3,179.7v-4h1v4H497.3z M497.3,171.7v-1.3h1v1.3H497.3z"/>
		
			<ellipse transform="matrix(0.9107 -0.4131 0.4131 0.9107 -85.9571 233.8378)" fill="#32BDB9" cx="497.8" cy="315.7" rx="3" ry="3"/>
		<polygon fill="#32BDB9" points="731,262.9 739.9,261.9 736.3,270.1 		"/>
		<path fill="#32BDB9" d="M611.5,341.1l-0.5-0.9l3.4-2.1l0.5,0.9L611.5,341.1z M618.3,337l-0.5-0.9l3.4-2.1l0.5,0.9L618.3,337z
			 M625.2,332.8l-0.5-0.9l3.4-2.1l0.5,0.9L625.2,332.8z M632,328.7l-0.5-0.9l3.4-2.1l0.5,0.9L632,328.7z M638.8,324.6l-0.5-0.9
			l3.4-2.1l0.5,0.9L638.8,324.6z M645.7,320.4l-0.5-0.9l3.4-2.1l0.5,0.9L645.7,320.4z M652.5,316.3l-0.5-0.9l3.4-2.1l0.5,0.9
			L652.5,316.3z M659.4,312.1l-0.5-0.9l3.4-2.1l0.5,0.9L659.4,312.1z M666.2,308l-0.5-0.9l3.4-2.1l0.5,0.9L666.2,308z M673,303.9
			l-0.5-0.9l3.4-2.1l0.5,0.9L673,303.9z M679.9,299.7l-0.5-0.9l3.4-2.1l0.5,0.9L679.9,299.7z M686.7,295.6l-0.5-0.9l3.4-2.1l0.5,0.9
			L686.7,295.6z M693.6,291.4l-0.5-0.9l3.4-2.1l0.5,0.9L693.6,291.4z M700.4,287.3l-0.5-0.9l3.4-2.1l0.5,0.9L700.4,287.3z
			 M707.2,283.2l-0.5-0.9l3.4-2.1l0.5,0.9L707.2,283.2z M714.1,279l-0.5-0.9l3.4-2.1l0.5,0.9L714.1,279z M720.9,274.9l-0.5-0.9
			l3.4-2.1l0.5,0.9L720.9,274.9z M727.8,270.7l-0.5-0.9l3.4-2.1l0.5,0.9L727.8,270.7z M734.6,266.6l-0.5-0.9l0.2-0.1l0.5,0.9
			L734.6,266.6z"/>
		<ellipse transform="matrix(0.5577 -0.83 0.83 0.5577 -12.5548 657.9178)" fill="#32BDB9" cx="611.1" cy="340.7" rx="3" ry="3"/>
		<polygon fill="#32BDB9" points="271.2,262.9 262.3,261.9 265.9,270.1 		"/>
		<path fill="#32BDB9" d="M390.7,341.1l-3.4-2.1l0.5-0.9l3.4,2.1L390.7,341.1z M383.9,337l-3.4-2.1l0.5-0.9l3.4,2.1L383.9,337z
			 M377,332.8l-3.4-2.1l0.5-0.9l3.4,2.1L377,332.8z M370.2,328.7l-3.4-2.1l0.5-0.9l3.4,2.1L370.2,328.7z M363.3,324.6l-3.4-2.1
			l0.5-0.9l3.4,2.1L363.3,324.6z M356.5,320.4l-3.4-2.1l0.5-0.9l3.4,2.1L356.5,320.4z M349.6,316.3l-3.4-2.1l0.5-0.9l3.4,2.1
			L349.6,316.3z M342.8,312.1l-3.4-2.1l0.5-0.9l3.4,2.1L342.8,312.1z M336,308l-3.4-2.1l0.5-0.9l3.4,2.1L336,308z M329.2,303.9
			l-3.4-2.1l0.5-0.9l3.4,2.1L329.2,303.9z M322.3,299.7l-3.4-2.1l0.5-0.9l3.4,2.1L322.3,299.7z M315.5,295.6l-3.5-2.1l0.5-0.9
			l3.4,2.1L315.5,295.6z M308.6,291.4l-3.4-2.1l0.5-0.9l3.4,2.1L308.6,291.4z M301.8,287.3l-3.4-2.1l0.5-0.9l3.4,2.1L301.8,287.3z
			 M295,283.2l-3.4-2.1l0.5-0.9l3.4,2.1L295,283.2z M288,279l-3.4-2.1l0.5-0.9l3.4,2.1L288,279z M281.2,274.9l-3.4-2.1l0.5-0.9
			l3.4,2.1L281.2,274.9z M274.3,270.7l-3.4-2.1l0.5-0.9l3.4,2.1L274.3,270.7z M267.5,266.6l-0.2-0.1l0.5-0.9l0.2,0.1L267.5,266.6z"
			/>
		<ellipse transform="matrix(0.83 -0.5577 0.5577 0.83 -123.5488 275.9645)" fill="#32BDB9" cx="391" cy="340.7" rx="3" ry="3"/>
		<polygon fill="#32BDB9" points="742.7,457.8 750.8,454 743.4,448.8 		"/>
		<path fill="#32BDB9" d="M744.5,453.7h-0.7v-1h0.7V453.7z M739.8,453.7h-4v-1h4V453.7z M731.8,453.7h-4v-1h4V453.7z M723.8,453.7
			h-4v-1h4V453.7z M715.8,453.7h-4v-1h4V453.7z M707.8,453.7h-4v-1h4V453.7z M699.8,453.7h-4v-1h4V453.7z M691.8,453.7h-4v-1h4
			V453.7z M683.8,453.7h-4v-1h4V453.7z M675.8,453.7h-4v-1h4V453.7z M667.8,453.7h-4v-1h4V453.7z M659.8,453.7h-4v-1h4V453.7z
			 M651.8,453.7h-4v-1h4V453.7z M643.8,453.7h-4v-1h4V453.7z M635.8,453.7h-4v-1h4V453.7z M627.8,453.7h-4v-1h4V453.7z"/>
		<ellipse transform="matrix(0.4155 -0.9096 0.9096 0.4155 -47.1691 832.2974)" fill="#32BDB9" cx="624" cy="452.9" rx="3" ry="3"/>
		<polygon fill="#32BDB9" points="257.3,457.2 249.2,453.4 256.6,448.2 		"/>
		<path fill="#32BDB9" d="M257.6,453.1v-1h4v1H257.6z M265.6,453.1v-1h4v1H265.6z M273.6,453.1v-1h4v1H273.6z M281.6,453.1v-1h4v1
			H281.6z M289.6,453.1v-1h4v1H289.6z M297.6,453.1v-1h4v1H297.6z M305.6,453.1v-1h4v1H305.6z M313.6,453.1v-1h4v1H313.6z
			 M321.6,453.1v-1h4v1H321.6z M329.6,453.1v-1h4v1H329.6z M337.6,453.1v-1h4v1H337.6z M345.6,453.1v-1h4v1H345.6z M353.6,453.1v-1
			h4v1H353.6z M361.6,453.1v-1h4v1H361.6z M369.6,453.1v-1h4v1H369.6z"/>
		
			<ellipse transform="matrix(0.9108 -0.4129 0.4129 0.9108 -153.5474 194.6403)" fill="#32BDB9" cx="373.6" cy="452.6" rx="3" ry="3"/>
		<linearGradient id="SVGID_3_" gradientUnits="userSpaceOnUse" x1="497.1" y1="570" x2="497.1" y2="260">
			<stop  offset="6.435644e-02" style="stop-color:#FFFFFF"/>
			<stop  offset="7.701259e-02" style="stop-color:#F9FBFB"/>
			<stop  offset="0.1432" style="stop-color:#DEE7E9"/>
			<stop  offset="0.2193" style="stop-color:#C8D7DA"/>
			<stop  offset="0.3081" style="stop-color:#B7CACF"/>
			<stop  offset="0.418" style="stop-color:#ACC1C7"/>
			<stop  offset="0.5721" style="stop-color:#A5BCC2"/>
			<stop  offset="1" style="stop-color:#A3BBC1"/>
		</linearGradient>
		<path fill="url(#SVGID_3_)" d="M384.5,569.8l6.2-0.1c-41.1-32.5-65-82-65-134.3c0-94.6,76.9-171.5,171.5-171.5
			s171.5,76.9,171.5,171.5c0,52.4-24,102-65.2,134.5l6.2,0.1c39.9-33.3,62.9-82.6,62.9-134.5c0-96.8-78.7-175.5-175.5-175.5
			s-175.5,78.7-175.5,175.5C321.7,487.3,344.7,536.5,384.5,569.8z"/>
		<path fill="#414042" d="M851.6,480.7L851.6,480.7l5.1-12.7h2.6v15.6h-2.1v-11.7h-0.1l-4.7,11.7h-1.5l-4.9-12.1h-0.1v12.1h-2.1V468
			h2.8L851.6,480.7z"/>
		<path fill="#414042" d="M869.8,483.6c-0.1-0.4-0.1-0.7-0.2-0.9c0-0.3-0.1-0.5-0.1-0.8c-0.4,0.6-0.9,1-1.5,1.4s-1.3,0.6-2,0.6
			c-1,0.1-2-0.3-2.8-0.9c-0.7-0.7-1-1.6-1-2.6s0.5-2,1.3-2.6c1.1-0.7,2.4-1,3.7-0.9h2.3v-1.1c0-0.6-0.2-1.2-0.6-1.6
			c-0.5-0.4-1.1-0.6-1.8-0.6c-0.6,0-1.2,0.2-1.7,0.5c-0.4,0.3-0.6,0.8-0.6,1.2h-2v-0.1c0-0.9,0.4-1.8,1.2-2.3c0.9-0.7,2.1-1.1,3.3-1
			c1.1-0.1,2.3,0.3,3.2,1c0.8,0.7,1.3,1.8,1.2,2.9v5.6c0,0.4,0,0.8,0.1,1.2c0,0.4,0.1,0.8,0.2,1.1L869.8,483.6L869.8,483.6z
			 M866.3,482.1c0.7,0,1.5-0.2,2.1-0.6c0.5-0.3,1-0.8,1.2-1.4v-1.9h-2.4c-0.7,0-1.4,0.2-2,0.6c-0.5,0.4-0.8,0.9-0.8,1.5
			c0,0.5,0.2,0.9,0.5,1.2C865.3,481.9,865.8,482.1,866.3,482.1L866.3,482.1z"/>
		<path fill="#414042" d="M880.2,473.9l-1.1-0.1c-0.5,0-1,0.1-1.4,0.4s-0.7,0.7-0.9,1.1v8.3h-2.1v-11.7h1.9l0.2,1.7
			c0.3-0.6,0.7-1,1.2-1.4c0.5-0.3,1.1-0.5,1.7-0.5c0.1,0,0.3,0,0.5,0l0.3,0.1L880.2,473.9z"/>
		<path fill="#414042" d="M885.7,478.3h-1.1v5.4h-2.1v-16.8h2.1v9.7h1.1l3.5-4.6h2.5l-4.2,5.4l4.6,6.3h-2.6L885.7,478.3z"/>
		<path fill="#414042" d="M898.3,483.9c-1.5,0.1-2.9-0.5-3.9-1.6c-1-1.2-1.5-2.7-1.4-4.2v-0.5c-0.1-1.5,0.5-3,1.4-4.1
			s2.2-1.7,3.5-1.6c1.3-0.1,2.6,0.4,3.5,1.5c0.8,1.1,1.2,2.5,1.2,3.9v1.1h-7.4l0,0c0,1,0.2,2,0.8,2.8c0.5,0.7,1.4,1.2,2.4,1.1
			c0.6,0,1.3-0.1,1.9-0.3c0.5-0.2,1-0.5,1.4-0.8l0.8,1.4c-0.5,0.4-1,0.8-1.6,1C900,483.7,899.2,483.9,898.3,483.9z M898,473.5
			c-0.7,0-1.4,0.3-1.8,0.9c-0.5,0.6-0.8,1.4-0.9,2.2l0,0h5.2v-0.2c0-0.7-0.2-1.5-0.6-2.1C899.4,473.7,898.7,473.4,898,473.5
			L898,473.5z"/>
		<path fill="#414042" d="M908,469.2v2.8h2.2v1.6H908v7.1c0,0.4,0.1,0.8,0.3,1.1c0.2,0.2,0.6,0.3,0.9,0.3c0.1,0,0.3,0,0.4,0l0.4-0.1
			l0.3,1.5c-0.2,0.2-0.4,0.3-0.7,0.3c-0.3,0.1-0.6,0.1-0.9,0.1c-0.8,0-1.5-0.2-2-0.8c-0.6-0.7-0.8-1.6-0.8-2.4v-7.1h-1.8V472h1.8
			v-2.8H908L908,469.2z"/>
		<path fill="#414042" d="M922.3,478.3c0.1,1.4-0.4,2.9-1.2,4c-0.8,1-2,1.6-3.3,1.5c-0.6,0-1.3-0.1-1.9-0.4c-0.5-0.2-1-0.6-1.4-1.1
			v5.7h-2.1v-16.1h1.6l0.3,1.5c0.4-0.5,0.8-1,1.4-1.3c0.6-0.3,1.3-0.5,2-0.4c1.3-0.1,2.6,0.6,3.4,1.7c0.9,1.3,1.3,2.9,1.2,4.5V478.3
			L922.3,478.3z M920.2,478c0-1.1-0.2-2.3-0.8-3.2c-0.5-0.8-1.3-1.3-2.3-1.3c-0.5,0-1.1,0.1-1.6,0.4c-0.4,0.3-0.8,0.7-1,1.1v5.6
			c0.2,0.5,0.6,0.8,1,1.1c0.5,0.3,1,0.4,1.6,0.4c0.9,0.1,1.8-0.4,2.3-1.1c0.5-0.8,0.8-1.8,0.8-2.8V478L920.2,478z"/>
		<path fill="#414042" d="M927.2,483.6h-2.1v-16.7h2.1V483.6L927.2,483.6z"/>
		<path fill="#414042" d="M937.6,483.6c-0.1-0.4-0.1-0.7-0.2-0.9c0-0.3-0.1-0.5-0.1-0.8c-0.4,0.6-0.9,1-1.5,1.4s-1.3,0.6-2,0.6
			c-1,0.1-2-0.3-2.8-0.9c-0.7-0.7-1-1.6-1-2.6s0.5-2,1.3-2.6c1.1-0.7,2.4-1,3.7-0.9h2.3v-1.1c0-0.6-0.2-1.2-0.6-1.6
			c-0.5-0.4-1.1-0.6-1.8-0.6c-0.6,0-1.2,0.2-1.7,0.5c-0.4,0.3-0.6,0.8-0.6,1.2h-2v-0.1c0-0.9,0.4-1.8,1.2-2.3c0.9-0.7,2.1-1.1,3.3-1
			c1.1-0.1,2.3,0.3,3.2,1c0.8,0.7,1.3,1.8,1.2,2.9v5.6c0,0.4,0,0.8,0.1,1.2c0,0.4,0.1,0.8,0.2,1.1L937.6,483.6L937.6,483.6z
			 M934.1,482.1c0.7,0,1.5-0.2,2.1-0.6c0.5-0.3,1-0.8,1.2-1.4v-1.9H935c-0.7,0-1.4,0.2-2,0.6c-0.5,0.4-0.8,0.9-0.8,1.5
			c0,0.5,0.2,0.9,0.5,1.2C933.1,481.9,933.6,482.1,934.1,482.1L934.1,482.1z"/>
		<path fill="#414042" d="M947.2,482.2c0.6,0,1.2-0.2,1.7-0.6s0.7-1,0.7-1.6h1.9v0.1c0,1-0.5,2-1.3,2.7c-2,1.7-5.1,1.5-6.9-0.5
			c-0.9-1.2-1.4-2.7-1.3-4.1v-0.5c0-1.5,0.4-3,1.3-4.1c0.9-1.1,2.3-1.7,3.8-1.7c1.2,0,2.3,0.4,3.2,1.2c0.8,0.8,1.3,1.9,1.2,3v0.1
			h-1.9c0-0.7-0.2-1.3-0.7-1.8c-0.4-0.5-1.1-0.8-1.8-0.8c-0.9-0.1-1.8,0.4-2.3,1.2c-0.5,0.9-0.7,1.9-0.7,2.9v0.5c0,1,0.2,2.1,0.7,3
			C945.4,481.8,946.3,482.3,947.2,482.2z"/>
		<path fill="#414042" d="M958.9,483.9c-1.5,0.1-2.9-0.5-3.9-1.6c-1-1.2-1.5-2.7-1.4-4.2v-0.5c-0.1-1.5,0.5-3,1.4-4.1
			s2.2-1.7,3.5-1.6c1.3-0.1,2.6,0.4,3.5,1.5c0.8,1.1,1.2,2.5,1.2,3.9v1.1h-7.4l0,0c0,1,0.2,2,0.8,2.8c0.5,0.7,1.4,1.2,2.4,1.1
			c0.6,0,1.3-0.1,1.9-0.3c0.5-0.2,1-0.5,1.4-0.8l0.8,1.4c-0.5,0.4-1,0.8-1.6,1C960.6,483.7,959.8,483.9,958.9,483.9z M958.6,473.5
			c-0.7,0-1.4,0.3-1.8,0.9c-0.5,0.6-0.8,1.4-0.9,2.2l0,0h5.2v-0.2c0-0.7-0.2-1.5-0.6-2.1C960,473.7,959.3,473.4,958.6,473.5
			L958.6,473.5z"/>
		<path fill="#414042" d="M972.4,480.5c0-0.4-0.2-0.9-0.5-1.1c-0.6-0.4-1.3-0.7-2-0.8c-1.1-0.2-2.2-0.6-3.2-1.2
			c-0.7-0.5-1.1-1.3-1.1-2.1c0-1,0.5-1.9,1.2-2.4c1.9-1.4,4.5-1.3,6.3,0.1c0.8,0.6,1.2,1.5,1.2,2.5v0.1h-2c0-0.5-0.3-1-0.7-1.4
			c-0.5-0.4-1.1-0.6-1.7-0.6c-0.6,0-1.2,0.1-1.7,0.5c-0.3,0.3-0.6,0.7-0.5,1.2c0,0.4,0.2,0.8,0.5,1.1c0.6,0.4,1.3,0.6,2,0.7
			c1.2,0.2,2.3,0.6,3.2,1.3c0.7,0.5,1.1,1.3,1.1,2.2c0,1-0.4,1.9-1.2,2.5c-0.9,0.7-2.1,1-3.3,1c-1.3,0.1-2.5-0.3-3.5-1.1
			c-0.8-0.6-1.2-1.6-1.2-2.6v-0.1h2c0,0.7,0.3,1.3,0.8,1.6c0.5,0.4,1.2,0.5,1.8,0.5s1.2-0.1,1.8-0.5
			C972.2,481.4,972.4,481,972.4,480.5z"/>
		<g>
			
				<line fill="none" stroke="#347EC0" stroke-width="1.5" stroke-linecap="round" stroke-linejoin="round" stroke-miterlimit="10" x1="481.5" y1="47.6" x2="501.2" y2="47.6"/>
			
				<line fill="none" stroke="#347EC0" stroke-width="1.5" stroke-linecap="round" stroke-linejoin="round" stroke-miterlimit="10" x1="481.5" y1="53" x2="501.2" y2="53"/>
			
				<line fill="none" stroke="#347EC0" stroke-width="1.5" stroke-linecap="round" stroke-linejoin="round" stroke-miterlimit="10" x1="481.5" y1="58.4" x2="501.2" y2="58.4"/>
			<path fill="#BBDEF4" d="M474.8,78h-15.7c-1.1,0-2-0.9-2-2v-7.3c0-1.1,0.9-2,2-2h15.7c1.1,0,2,0.9,2,2V76
				C476.8,77.1,475.9,78,474.8,78"/>
			
				<path fill="none" stroke="#347EC0" stroke-width="1.5" stroke-linecap="round" stroke-linejoin="round" stroke-miterlimit="10" d="
				M474.8,78h-15.7c-1.1,0-2-0.9-2-2v-7.3c0-1.1,0.9-2,2-2h15.7c1.1,0,2,0.9,2,2V76C476.8,77.1,475.9,78,474.8,78z"/>
			
				<line fill="none" stroke="#347EC0" stroke-width="1.5" stroke-linecap="round" stroke-linejoin="round" stroke-miterlimit="10" x1="457.1" y1="83" x2="476.8" y2="83"/>
			
				<line fill="none" stroke="#347EC0" stroke-width="1.5" stroke-linecap="round" stroke-linejoin="round" stroke-miterlimit="10" x1="457.1" y1="88.4" x2="468.2" y2="88.4"/>
			<path fill="#BBDEF4" d="M499.2,78h-15.7c-1.1,0-2-0.9-2-2v-7.3c0-1.1,0.9-2,2-2h15.7c1.1,0,2,0.9,2,2V76
				C501.2,77.1,500.3,78,499.2,78"/>
			
				<path fill="none" stroke="#347EC0" stroke-width="1.5" stroke-linecap="round" stroke-linejoin="round" stroke-miterlimit="10" d="
				M499.2,78h-15.7c-1.1,0-2-0.9-2-2v-7.3c0-1.1,0.9-2,2-2h15.7c1.1,0,2,0.9,2,2V76C501.2,77.1,500.3,78,499.2,78z"/>
			
				<line fill="none" stroke="#347EC0" stroke-width="1.5" stroke-linecap="round" stroke-linejoin="round" stroke-miterlimit="10" x1="481.5" y1="83" x2="501.2" y2="83"/>
			
				<line fill="none" stroke="#347EC0" stroke-width="1.5" stroke-linecap="round" stroke-linejoin="round" stroke-miterlimit="10" x1="481.5" y1="88.4" x2="492.6" y2="88.4"/>
			<path fill="#BBDEF4" d="M475,58.1h-15.7c-1.1,0-2-0.9-2-2v-7.3c0-1.1,0.9-2,2-2H475c1.1,0,2,0.9,2,2v7.3
				C477,57.2,476.1,58.1,475,58.1"/>
			
				<path fill="none" stroke="#347EC0" stroke-width="1.5" stroke-linecap="round" stroke-linejoin="round" stroke-miterlimit="10" d="
				M475,58.1h-15.7c-1.1,0-2-0.9-2-2v-7.3c0-1.1,0.9-2,2-2H475c1.1,0,2,0.9,2,2v7.3C477,57.2,476.1,58.1,475,58.1z"/>
			<path fill="#FFFFFF" d="M535.7,107.1h-76.6c-2.2,0-4-1.8-4-4.1V30.2c0-2.2,1.8-4,4-4h76.6c2.2,0,4,1.8,4,4v72.9
				C539.7,105.3,537.9,107.1,535.7,107.1"/>
			<path fill="none" stroke="#347EC0" stroke-width="1.5" stroke-miterlimit="10" d="M535.7,107.1h-76.6c-2.2,0-4-1.8-4-4.1V30.2
				c0-2.2,1.8-4,4-4h76.6c2.2,0,4,1.8,4,4v72.9C539.7,105.3,537.9,107.1,535.7,107.1z"/>
			<line fill="none" stroke="#347EC0" stroke-width="1.5" stroke-miterlimit="10" x1="455.1" y1="38" x2="539.7" y2="38"/>
			
				<line fill="none" stroke="#347EC0" stroke-width="1.5" stroke-linecap="round" stroke-linejoin="round" stroke-miterlimit="10" x1="498" y1="46.8" x2="511.5" y2="46.8"/>
			
				<line fill="none" stroke="#347EC0" stroke-width="1.5" stroke-linecap="round" stroke-linejoin="round" stroke-miterlimit="10" x1="498" y1="52.3" x2="532.1" y2="52.3"/>
			
				<line fill="none" stroke="#347EC0" stroke-width="1.5" stroke-linecap="round" stroke-linejoin="round" stroke-miterlimit="10" x1="498" y1="60.4" x2="501.8" y2="60.4"/>
			
				<line fill="none" stroke="#347EC0" stroke-width="1.5" stroke-linecap="round" stroke-linejoin="round" stroke-miterlimit="10" x1="506" y1="60.4" x2="532.1" y2="60.4"/>
			
				<line fill="none" stroke="#347EC0" stroke-width="1.5" stroke-linecap="round" stroke-linejoin="round" stroke-miterlimit="10" x1="498" y1="65.8" x2="501.8" y2="65.8"/>
			
				<line fill="none" stroke="#347EC0" stroke-width="1.5" stroke-linecap="round" stroke-linejoin="round" stroke-miterlimit="10" x1="506" y1="65.8" x2="532.1" y2="65.8"/>
			
				<line fill="none" stroke="#347EC0" stroke-width="1.5" stroke-linecap="round" stroke-linejoin="round" stroke-miterlimit="10" x1="498" y1="71.2" x2="501.8" y2="71.2"/>
			
				<line fill="none" stroke="#347EC0" stroke-width="1.5" stroke-linecap="round" stroke-linejoin="round" stroke-miterlimit="10" x1="506" y1="71.3" x2="532.1" y2="71.3"/>
			<path fill="#BBDEF4" d="M481.3,90.8h-15.7c-1.1,0-2-0.9-2-2v-7.3c0-1.1,0.9-2,2-2h15.7c1.1,0,2,0.9,2,2v7.3
				C483.3,89.9,482.4,90.8,481.3,90.8"/>
			
				<path fill="none" stroke="#347EC0" stroke-width="1.5" stroke-linecap="round" stroke-linejoin="round" stroke-miterlimit="10" d="
				M481.3,90.8h-15.7c-1.1,0-2-0.9-2-2v-7.3c0-1.1,0.9-2,2-2h15.7c1.1,0,2,0.9,2,2v7.3C483.3,89.9,482.4,90.8,481.3,90.8z"/>
			
				<line fill="none" stroke="#347EC0" stroke-width="1.5" stroke-linecap="round" stroke-linejoin="round" stroke-miterlimit="10" x1="463.6" y1="95.8" x2="483.3" y2="95.8"/>
			
				<line fill="none" stroke="#347EC0" stroke-width="1.5" stroke-linecap="round" stroke-linejoin="round" stroke-miterlimit="10" x1="463.6" y1="101.3" x2="474.7" y2="101.3"/>
			<path fill="#BBDEF4" d="M505.7,90.8H490c-1.1,0-2-0.9-2-2v-7.3c0-1.1,0.9-2,2-2h15.7c1.1,0,2,0.9,2,2v7.3
				C507.7,89.9,506.8,90.8,505.7,90.8"/>
			
				<path fill="none" stroke="#347EC0" stroke-width="1.5" stroke-linecap="round" stroke-linejoin="round" stroke-miterlimit="10" d="
				M505.7,90.8H490c-1.1,0-2-0.9-2-2v-7.3c0-1.1,0.9-2,2-2h15.7c1.1,0,2,0.9,2,2v7.3C507.7,89.9,506.8,90.8,505.7,90.8z"/>
			
				<line fill="none" stroke="#347EC0" stroke-width="1.5" stroke-linecap="round" stroke-linejoin="round" stroke-miterlimit="10" x1="488" y1="95.8" x2="507.7" y2="95.8"/>
			
				<line fill="none" stroke="#347EC0" stroke-width="1.5" stroke-linecap="round" stroke-linejoin="round" stroke-miterlimit="10" x1="488" y1="101.3" x2="499.1" y2="101.3"/>
			<path fill="#BBDEF4" d="M530.1,90.8h-15.7c-1.1,0-2-0.9-2-2v-7.3c0-1.1,0.9-2,2-2h15.7c1.1,0,2,0.9,2,2v7.3
				C532.1,89.9,531.2,90.8,530.1,90.8"/>
			
				<path fill="none" stroke="#347EC0" stroke-width="1.5" stroke-linecap="round" stroke-linejoin="round" stroke-miterlimit="10" d="
				M530.1,90.8h-15.7c-1.1,0-2-0.9-2-2v-7.3c0-1.1,0.9-2,2-2h15.7c1.1,0,2,0.9,2,2v7.3C532.1,89.9,531.2,90.8,530.1,90.8z"/>
			
				<line fill="none" stroke="#347EC0" stroke-width="1.5" stroke-linecap="round" stroke-linejoin="round" stroke-miterlimit="10" x1="512.4" y1="95.8" x2="532.1" y2="95.8"/>
			
				<line fill="none" stroke="#347EC0" stroke-width="1.5" stroke-linecap="round" stroke-linejoin="round" stroke-miterlimit="10" x1="512.4" y1="101.3" x2="523.5" y2="101.3"/>
			<path fill="#347EC0" d="M462.5,32.7c0,0.7-0.6,1.3-1.3,1.3c-0.7,0-1.3-0.6-1.3-1.3s0.6-1.3,1.3-1.3S462.5,32,462.5,32.7"/>
			<path fill="#347EC0" d="M466.5,32.7c0,0.7-0.6,1.3-1.3,1.3s-1.3-0.6-1.3-1.3s0.6-1.3,1.3-1.3C466,31.4,466.5,32,466.5,32.7"/>
			<path fill="#347EC0" d="M470.6,32.7c0,0.7-0.6,1.3-1.3,1.3c-0.7,0-1.3-0.6-1.3-1.3s0.6-1.3,1.3-1.3S470.6,32,470.6,32.7"/>
			
				<ellipse fill="none" stroke="#347EC0" stroke-width="1.5" stroke-linecap="round" stroke-linejoin="round" stroke-miterlimit="10" cx="472" cy="69.9" rx="2.7" ry="2.8"/>
			
				<ellipse fill="none" stroke="#347EC0" stroke-width="1.5" stroke-linecap="round" stroke-linejoin="round" stroke-miterlimit="10" cx="487.1" cy="69.9" rx="2.7" ry="2.8"/>
			
				<line fill="none" stroke="#347EC0" stroke-width="1.5" stroke-linecap="round" stroke-linejoin="round" stroke-miterlimit="10" x1="474.7" y1="69.9" x2="484.4" y2="69.9"/>
			
				<line fill="none" stroke="#347EC0" stroke-width="1.5" stroke-linecap="round" stroke-linejoin="round" stroke-miterlimit="10" x1="473" y1="67.4" x2="476.2" y2="63.2"/>
			
				<path fill="none" stroke="#347EC0" stroke-width="1.5" stroke-linecap="round" stroke-linejoin="round" stroke-miterlimit="10" d="
				M467.9,48.8h17.6h4.4v4.4v5.7c0,2.4-2,4.4-4.4,4.4h-8.2c-1.3,0-2.5-0.7-3.1-1.9L467.9,48.8z"/>
			
				<path fill="none" stroke="#347EC0" stroke-width="1.5" stroke-linecap="round" stroke-linejoin="round" stroke-miterlimit="10" d="
				M467.9,48.8l-1.4-2.7c-0.3-0.6-0.9-1-1.6-1h-2.7"/>
		</g>
		<g>
			<path d="M825.7,251.5c1-0.2,2.3-0.3,4-0.3c2.1,0,3.6,0.5,4.5,1.3s1.4,1.9,1.4,3.4s-0.4,2.6-1.2,3.5c-1.1,1.2-2.9,1.8-4.9,1.8
				c-0.6,0-1.2,0-1.7-0.1v6.5h-2.1V251.5z M827.8,259.3c0.5,0.1,1,0.2,1.7,0.2c2.5,0,4.1-1.2,4.1-3.5c0-2.1-1.5-3.2-3.8-3.2
				c-0.9,0-1.6,0.1-2,0.2V259.3L827.8,259.3z"/>
			<path d="M848.3,261.6c0,4.3-3,6.2-5.8,6.2c-3.1,0-5.6-2.3-5.6-6c0-3.9,2.5-6.2,5.8-6.2C846,255.6,848.3,258,848.3,261.6z
				 M839.1,261.7c0,2.5,1.5,4.5,3.5,4.5s3.5-1.9,3.5-4.5c0-2-1-4.5-3.5-4.5S839.1,259.5,839.1,261.7z"/>
			<path d="M850.9,259.7c0-1.5,0-2.7-0.1-3.8h1.9l0.1,2l0,0c0.9-1.4,2.2-2.3,4.1-2.3c2.8,0,4.9,2.4,4.9,5.9c0,4.2-2.5,6.2-5.3,6.2
				c-1.5,0-2.9-0.7-3.6-1.8l0,0v6.3h-2.1L850.9,259.7L850.9,259.7z M853,262.8c0,0.3,0,0.6,0.1,0.9c0.4,1.5,1.7,2.5,3.2,2.5
				c2.2,0,3.5-1.8,3.5-4.5c0-2.3-1.2-4.3-3.5-4.3c-1.4,0-2.8,1-3.2,2.6c-0.1,0.3-0.1,0.6-0.1,0.9V262.8z"/>
			<path d="M869.9,260.2v1.6H864v-1.6H869.9z"/>
			<path d="M882,264.3c0,1.2,0,2.3,0.1,3.2h-1.9l-0.1-1.9l0,0c-0.6,0.9-1.8,2.2-3.8,2.2c-1.8,0-4-1-4-5.1v-6.8h2.1v6.4
				c0,2.2,0.7,3.7,2.6,3.7c1.4,0,2.4-1,2.8-1.9c0.1-0.3,0.2-0.7,0.2-1.1v-7.1h2.1L882,264.3L882,264.3z"/>
			<path d="M885.5,259.7c0-1.5,0-2.7-0.1-3.8h1.9l0.1,2l0,0c0.9-1.4,2.2-2.3,4.1-2.3c2.8,0,4.9,2.4,4.9,5.9c0,4.2-2.5,6.2-5.3,6.2
				c-1.5,0-2.9-0.7-3.6-1.8l0,0v6.3h-2.1L885.5,259.7L885.5,259.7z M887.6,262.8c0,0.3,0,0.6,0.1,0.9c0.4,1.5,1.7,2.5,3.2,2.5
				c2.2,0,3.5-1.8,3.5-4.5c0-2.3-1.2-4.3-3.5-4.3c-1.4,0-2.8,1-3.2,2.6c-0.1,0.3-0.1,0.6-0.1,0.9V262.8z"/>
			<path d="M904,265.3c0.6,0.4,1.7,0.8,2.8,0.8c1.5,0,2.3-0.8,2.3-1.7c0-1-0.6-1.6-2.2-2.1c-2.1-0.7-3.1-1.9-3.1-3.3
				c0-1.9,1.5-3.4,4-3.4c1.2,0,2.2,0.3,2.9,0.7l-0.5,1.5c-0.5-0.3-1.3-0.7-2.4-0.7c-1.2,0-1.9,0.7-1.9,1.6c0,1,0.7,1.4,2.2,2
				c2,0.8,3,1.8,3,3.5c0,2-1.6,3.5-4.3,3.5c-1.3,0-2.4-0.3-3.3-0.8L904,265.3z"/>
			<path d="M916.3,252.5v3.3h3v1.6h-3v6.3c0,1.4,0.4,2.3,1.6,2.3c0.6,0,1-0.1,1.2-0.1l0.1,1.6c-0.4,0.2-1.1,0.3-1.9,0.3
				c-1,0-1.8-0.3-2.3-0.9c-0.6-0.6-0.8-1.7-0.8-3v-6.3h-1.8V256h1.8v-2.8L916.3,252.5z"/>
			<path d="M932.1,261.6c0,4.3-3,6.2-5.8,6.2c-3.1,0-5.6-2.3-5.6-6c0-3.9,2.5-6.2,5.8-6.2C929.9,255.6,932.1,258,932.1,261.6z
				 M922.9,261.7c0,2.5,1.5,4.5,3.5,4.5s3.5-1.9,3.5-4.5c0-2-1-4.5-3.5-4.5C924,257.2,922.9,259.5,922.9,261.7z"/>
			<path d="M934.8,259.5c0-1.4,0-2.5-0.1-3.6h1.8l0.1,2.3h0.1c0.5-1.6,1.8-2.5,3.2-2.5c0.2,0,0.4,0,0.6,0.1v2
				c-0.2,0-0.4-0.1-0.7-0.1c-1.5,0-2.5,1.1-2.8,2.7c0,0.3-0.1,0.6-0.1,1v6.2h-2.1V259.5L934.8,259.5z"/>
			<path d="M943.6,262.1c0,2.9,1.9,4,4,4c1.5,0,2.4-0.3,3.2-0.6l0.4,1.5c-0.7,0.3-2,0.7-3.9,0.7c-3.6,0-5.7-2.4-5.7-5.9
				s2.1-6.3,5.4-6.3c3.8,0,4.8,3.3,4.8,5.5c0,0.4,0,0.8-0.1,1L943.6,262.1L943.6,262.1z M949.7,260.5c0-1.3-0.6-3.4-2.9-3.4
				c-2.1,0-3.1,2-3.2,3.4H949.7z"/>
			<path d="M954.1,265.3c0.6,0.4,1.7,0.8,2.8,0.8c1.5,0,2.3-0.8,2.3-1.7c0-1-0.6-1.6-2.2-2.1c-2.1-0.7-3.1-1.9-3.1-3.3
				c0-1.9,1.5-3.4,4-3.4c1.2,0,2.2,0.3,2.9,0.7l-0.5,1.5c-0.5-0.3-1.3-0.7-2.4-0.7c-1.2,0-1.9,0.7-1.9,1.6c0,1,0.7,1.4,2.2,2
				c2,0.8,3,1.8,3,3.5c0,2-1.6,3.5-4.3,3.5c-1.3,0-2.4-0.3-3.3-0.8L954.1,265.3z"/>
		</g>
		<g>
			<path d="M46.6,492.5c0.9,0.6,2.3,1.1,3.7,1.1c2.1,0,3.4-1.1,3.4-2.8c0-1.5-0.9-2.4-3-3.2c-2.6-0.9-4.3-2.3-4.3-4.6
				c0-2.5,2.1-4.4,5.2-4.4c1.7,0,2.9,0.4,3.6,0.8l-0.6,1.7c-0.5-0.3-1.6-0.8-3.1-0.8c-2.2,0-3,1.3-3,2.4c0,1.5,1,2.3,3.2,3.1
				c2.7,1.1,4.1,2.4,4.1,4.8c0,2.5-1.8,4.7-5.7,4.7c-1.6,0-3.3-0.5-4.1-1L46.6,492.5z"/>
			<path d="M60,489.6c0,2.9,1.9,4,4,4c1.5,0,2.4-0.3,3.2-0.6l0.4,1.5c-0.7,0.3-2,0.7-3.9,0.7c-3.6,0-5.7-2.4-5.7-5.9
				s2.1-6.3,5.4-6.3c3.8,0,4.8,3.3,4.8,5.5c0,0.4,0,0.8-0.1,1L60,489.6L60,489.6z M66.2,488.1c0-1.3-0.6-3.4-2.9-3.4
				c-2.1,0-3.1,2-3.2,3.4H66.2z"/>
			<path d="M70.8,478h2.1v17h-2.1V478z"/>
			<path d="M76.5,478h2.1v17h-2.1V478z"/>
			<path d="M97.7,489.2c0,4.3-3,6.2-5.8,6.2c-3.1,0-5.6-2.3-5.6-6c0-3.9,2.5-6.2,5.8-6.2C95.5,483.2,97.7,485.6,97.7,489.2z
				 M88.5,489.3c0,2.5,1.5,4.5,3.5,4.5s3.5-1.9,3.5-4.5c0-2-1-4.5-3.5-4.5C89.6,484.8,88.5,487.1,88.5,489.3z"/>
			<path d="M100.4,486.6c0-1.2,0-2.2-0.1-3.1h1.9l0.1,1.9l0,0c0.6-1.1,1.9-2.2,3.8-2.2c1.6,0,4.1,1,4.1,4.9v6.9h-2.1v-6.7
				c0-1.9-0.7-3.4-2.7-3.4c-1.4,0-2.5,1-2.8,2.2c-0.1,0.3-0.1,0.6-0.1,1v7h-2.1L100.4,486.6L100.4,486.6z"/>
			<path d="M118.6,487.8v1.6h-5.9v-1.6H118.6z"/>
			<path d="M123.6,480.1v3.3h3v1.6h-3v6.3c0,1.4,0.4,2.3,1.6,2.3c0.6,0,1-0.1,1.2-0.1l0.1,1.6c-0.4,0.2-1.1,0.3-1.9,0.3
				c-1,0-1.8-0.3-2.3-0.9c-0.6-0.6-0.8-1.7-0.8-3v-6.3h-1.8v-1.6h1.8v-2.8L123.6,480.1z"/>
			<path d="M129,478h2.1v7.2l0,0c0.3-0.6,0.9-1.1,1.5-1.5s1.4-0.6,2.2-0.6c1.6,0,4.1,1,4.1,5v6.9h-2.1v-6.7c0-1.9-0.7-3.5-2.7-3.5
				c-1.4,0-2.4,1-2.8,2.1c-0.1,0.3-0.1,0.6-0.1,1v7H129V478L129,478z"/>
			<path d="M143.5,489.6c0,2.9,1.9,4,4,4c1.5,0,2.4-0.3,3.2-0.6l0.4,1.5c-0.7,0.3-2,0.7-3.9,0.7c-3.6,0-5.7-2.4-5.7-5.9
				s2.1-6.3,5.4-6.3c3.8,0,4.8,3.3,4.8,5.5c0,0.4,0,0.8-0.1,1L143.5,489.6L143.5,489.6z M149.7,488.1c0-1.3-0.6-3.4-2.9-3.4
				c-2.1,0-3.1,2-3.2,3.4H149.7z"/>
			<path d="M159.9,487.8v1.6H154v-1.6H159.9z"/>
			<path d="M172.8,483.4c0,0.8-0.1,1.8-0.1,3.2v6.7c0,2.7-0.5,4.3-1.7,5.3c-1.1,1.1-2.8,1.4-4.2,1.4s-2.9-0.3-3.9-1l0.5-1.6
				c0.8,0.5,2,0.9,3.4,0.9c2.2,0,3.7-1.1,3.7-4.1v-1.3l0,0c-0.6,1.1-1.9,1.9-3.7,1.9c-2.9,0-4.9-2.4-4.9-5.7c0-3.9,2.6-6.2,5.2-6.2
				c2,0,3.1,1.1,3.6,2l0,0l0.1-1.8L172.8,483.4L172.8,483.4z M170.6,488c0-0.4,0-0.7-0.1-1c-0.4-1.2-1.4-2.2-3-2.2
				c-2,0-3.5,1.7-3.5,4.4c0,2.3,1.2,4.2,3.4,4.2c1.3,0,2.5-0.8,2.9-2.2c0.1-0.4,0.2-0.8,0.2-1.1L170.6,488L170.6,488z"/>
			<path d="M186.7,489.2c0,4.3-3,6.2-5.8,6.2c-3.1,0-5.6-2.3-5.6-6c0-3.9,2.5-6.2,5.8-6.2S186.7,485.6,186.7,489.2z M177.5,489.3
				c0,2.5,1.5,4.5,3.5,4.5s3.5-1.9,3.5-4.5c0-2-1-4.5-3.5-4.5S177.5,487.1,177.5,489.3z"/>
		</g>
		<g>
			<path d="M440.7,136.6c0,2.9,1.9,4,4,4c1.5,0,2.4-0.3,3.2-0.6l0.4,1.5c-0.7,0.3-2,0.7-3.9,0.7c-3.6,0-5.7-2.4-5.7-5.9
				s2.1-6.3,5.4-6.3c3.8,0,4.8,3.3,4.8,5.5c0,0.4,0,0.8-0.1,1h-8.1V136.6z M446.9,135.1c0-1.3-0.6-3.4-2.9-3.4c-2.1,0-3.1,2-3.2,3.4
				H446.9z"/>
			<path d="M462.9,141.5c-0.8,0.4-2.3,0.8-4.3,0.8c-4.6,0-8-2.9-8-8.2c0-5.1,3.4-8.5,8.4-8.5c2,0,3.3,0.4,3.8,0.7l-0.5,1.7
				c-0.8-0.4-1.9-0.7-3.3-0.7c-3.8,0-6.3,2.4-6.3,6.7c0,4,2.3,6.5,6.2,6.5c1.3,0,2.6-0.3,3.4-0.7L462.9,141.5z"/>
			<path d="M475.7,136.1c0,4.3-3,6.2-5.8,6.2c-3.1,0-5.6-2.3-5.6-6c0-3.9,2.5-6.2,5.8-6.2C473.4,130.2,475.7,132.6,475.7,136.1z
				 M466.5,136.3c0,2.5,1.5,4.5,3.5,4.5s3.5-1.9,3.5-4.5c0-2-1-4.5-3.5-4.5C467.6,131.7,466.5,134,466.5,136.3z"/>
			<path d="M478.4,133.6c0-1.2,0-2.2-0.1-3.1h1.8l0.1,1.9h0.1c0.6-1.1,1.7-2.1,3.6-2.1c1.6,0,2.8,1,3.3,2.3l0,0
				c0.4-0.6,0.8-1.2,1.3-1.5c0.7-0.5,1.5-0.8,2.6-0.8c1.5,0,3.8,1,3.8,5v6.8h-2.1v-6.6c0-2.2-0.8-3.6-2.5-3.6
				c-1.2,0-2.1,0.9-2.5,1.9c-0.1,0.3-0.2,0.7-0.2,1.1v7.2h-2.1v-7c0-1.8-0.8-3.2-2.4-3.2c-1.3,0-2.3,1.1-2.6,2.1
				c-0.1,0.3-0.2,0.7-0.2,1v7h-2.1v-8.4H478.4z"/>
			<path d="M498.4,133.6c0-1.2,0-2.2-0.1-3.1h1.8l0.1,1.9h0.1c0.6-1.1,1.7-2.1,3.6-2.1c1.6,0,2.8,1,3.3,2.3l0,0
				c0.4-0.6,0.8-1.2,1.3-1.5c0.7-0.5,1.5-0.8,2.6-0.8c1.5,0,3.8,1,3.8,5v6.8h-2.1v-6.6c0-2.2-0.8-3.6-2.5-3.6
				c-1.2,0-2.1,0.9-2.5,1.9c-0.1,0.3-0.2,0.7-0.2,1.1v7.2h-2.1v-7c0-1.8-0.8-3.2-2.4-3.2c-1.3,0-2.3,1.1-2.6,2.1
				c-0.1,0.3-0.2,0.7-0.2,1v7h-2.1v-8.4H498.4z"/>
			<path d="M519.6,136.6c0,2.9,1.9,4,4,4c1.5,0,2.4-0.3,3.2-0.6l0.4,1.5c-0.7,0.3-2,0.7-3.9,0.7c-3.6,0-5.7-2.4-5.7-5.9
				s2.1-6.3,5.4-6.3c3.8,0,4.8,3.3,4.8,5.5c0,0.4,0,0.8-0.1,1h-8.1V136.6z M525.8,135.1c0-1.3-0.6-3.4-2.9-3.4c-2.1,0-3.1,2-3.2,3.4
				H525.8z"/>
			<path d="M530.4,134c0-1.4,0-2.5-0.1-3.6h1.8l0.1,2.3h0.1c0.5-1.6,1.8-2.5,3.2-2.5c0.2,0,0.4,0,0.6,0.1v2c-0.2,0-0.4-0.1-0.7-0.1
				c-1.5,0-2.5,1.1-2.8,2.7c0,0.3-0.1,0.6-0.1,1v6.2h-2.1V134z"/>
			<path d="M546.3,141.6c-0.6,0.3-1.8,0.7-3.3,0.7c-3.5,0-5.8-2.4-5.8-5.9c0-3.6,2.4-6.2,6.2-6.2c1.2,0,2.4,0.3,2.9,0.6l-0.5,1.6
				c-0.5-0.3-1.3-0.6-2.4-0.6c-2.7,0-4.1,2-4.1,4.4c0,2.7,1.7,4.3,4,4.3c1.2,0,2-0.3,2.6-0.6L546.3,141.6z"/>
			<path d="M549.8,136.6c0,2.9,1.9,4,4,4c1.5,0,2.4-0.3,3.2-0.6l0.4,1.5c-0.7,0.3-2,0.7-3.9,0.7c-3.6,0-5.7-2.4-5.7-5.9
				s2.1-6.3,5.4-6.3c3.8,0,4.8,3.3,4.8,5.5c0,0.4,0,0.8-0.1,1h-8.1V136.6z M556,135.1c0-1.3-0.6-3.4-2.9-3.4c-2.1,0-3.1,2-3.2,3.4
				H556z"/>
		</g>
	</g>
	<g>
		<g>
			
				<polygon id="Fill-1_1_" fill="#C4E2F6" stroke="#347EC0" stroke-width="1.5" stroke-linecap="round" stroke-linejoin="round" stroke-miterlimit="10" points="
				473,375.8 473,382.3 479.5,382.3 557.2,382.3 564.2,382.3 564.2,376 518.4,356.8 			"/>
			
				<polyline id="Stroke-2_1_" fill="none" stroke="#347EC0" stroke-width="1.5" stroke-linecap="round" stroke-linejoin="round" points="
				479.5,382.3 473,382.3 473,375.8 518.4,356.8 564.2,376 564.2,382.3 557.2,382.3 			"/>
			<polygon id="Fill-4_1_" fill="#FFFFFF" stroke="#347EC0" stroke-width="1.5" stroke-miterlimit="10" points="479.5,378.2 
				479.5,437.8 557.2,437.8 557.2,378.2 518.4,363.5 			"/>
			
				<polygon id="Stroke-5_1_" fill="none" stroke="#347EC0" stroke-width="1.5" stroke-linecap="round" stroke-linejoin="round" points="
				557.2,437.8 479.5,437.8 479.5,378.2 518.4,363.5 557.2,378.2 			"/>
			
				<polygon id="Stroke-7_1_" fill="none" stroke="#347EC0" stroke-width="1.5" stroke-linecap="round" stroke-linejoin="round" points="
				495.1,391 504.8,391 504.8,381.3 495.1,381.3 			"/>
			
				<polygon id="Stroke-8_1_" fill="none" stroke="#347EC0" stroke-width="1.5" stroke-linecap="round" stroke-linejoin="round" points="
				513.7,391 523.5,391 523.5,381.3 513.7,381.3 			"/>
			
				<polygon id="Stroke-9_1_" fill="none" stroke="#347EC0" stroke-width="1.5" stroke-linecap="round" stroke-linejoin="round" points="
				532.3,391 542,391 542,381.3 532.3,381.3 			"/>
			
				<polygon id="Fill-10_1_" fill="#E0E4E8" stroke="#347EC0" stroke-width="1.5" stroke-linecap="round" stroke-linejoin="round" stroke-miterlimit="10" points="
				495.1,400.6 495.1,406.3 495.1,437.8 542,437.8 542,400.6 			"/>
			
				<polygon id="Stroke-11_1_" fill="#C4E2F6" stroke="#347EC0" stroke-width="1.5" stroke-linecap="round" stroke-linejoin="round" points="
				542,437.8 495.1,437.8 495.1,406.3 495.1,400.6 542,400.6 			"/>
			<path id="Stroke-13_1_" fill="none" stroke="#347EC0" stroke-width="1.5" stroke-linecap="round" stroke-linejoin="round" d="
				M542,406.6h-47"/>
			<path id="Stroke-14_1_" fill="none" stroke="#347EC0" stroke-width="1.5" stroke-linecap="round" stroke-linejoin="round" d="
				M542,412.6h-47"/>
			<path id="Stroke-15_1_" fill="none" stroke="#347EC0" stroke-width="1.5" stroke-linecap="round" stroke-linejoin="round" d="
				M542,418.7h-47"/>
			<path id="Stroke-16_1_" fill="#C6E2F3" stroke="#347EC0" stroke-width="1.5" stroke-linecap="round" stroke-linejoin="round" d="
				M542,424.9h-47"/>
			<path id="Stroke-17_1_" fill="none" stroke="#347EC0" stroke-width="1.5" stroke-linecap="round" stroke-linejoin="round" d="
				M542,431.2h-47"/>
		</g>
	</g>
	<g>
		<path d="M444.3,490.5l-4.1-16.2h2.2l1.9,8.2c0.5,2,0.9,4,1.2,5.6l0,0c0.3-1.6,0.8-3.5,1.3-5.6l2.2-8.2h2.2l2,8.2
			c0.5,1.9,0.9,3.8,1.1,5.5l0,0c0.3-1.8,0.8-3.6,1.3-5.6l2.1-8.2h2.1l-4.6,16.2H453l-2-8.4c-0.5-2.1-0.8-3.6-1.1-5.3l0,0
			c-0.3,1.6-0.6,3.2-1.2,5.3l-2.3,8.4L444.3,490.5L444.3,490.5z"/>
		<path d="M467.6,490.5l-0.2-1.5h-0.1c-0.6,0.9-1.9,1.7-3.6,1.7c-2.4,0-3.6-1.7-3.6-3.3c0-2.8,2.5-4.3,7-4.3v-0.2
			c0-1-0.3-2.7-2.6-2.7c-1.1,0-2.2,0.3-3,0.9l-0.5-1.4c1-0.6,2.4-1,3.8-1c3.6,0,4.4,2.4,4.4,4.8v4.3c0,1,0,2,0.2,2.8L467.6,490.5
			L467.6,490.5z M467.3,484.6c-2.3,0-4.9,0.4-4.9,2.6c0,1.4,0.9,2,2,2c1.5,0,2.5-1,2.8-1.9c0.1-0.2,0.1-0.5,0.1-0.7V484.6z"/>
		<path d="M472.7,482.5c0-1.4,0-2.5-0.1-3.6h1.8l0.1,2.3h0.1c0.5-1.6,1.8-2.5,3.2-2.5c0.2,0,0.4,0,0.6,0.1v2c-0.2,0-0.4-0.1-0.7-0.1
			c-1.5,0-2.5,1.1-2.8,2.7c0,0.3-0.1,0.6-0.1,1v6.2h-2.1V482.5z"/>
		<path d="M481.5,485.1c0,2.9,1.9,4,4,4c1.5,0,2.4-0.3,3.2-0.6l0.4,1.5c-0.7,0.3-2,0.7-3.9,0.7c-3.6,0-5.7-2.4-5.7-5.9
			s2.1-6.3,5.4-6.3c3.8,0,4.8,3.3,4.8,5.5c0,0.4,0,0.8-0.1,1L481.5,485.1L481.5,485.1z M487.7,483.6c0-1.3-0.6-3.4-2.9-3.4
			c-2.1,0-3.1,2-3.2,3.4H487.7z"/>
		<path d="M492.3,473.5h2.1v7.2l0,0c0.3-0.6,0.9-1.1,1.5-1.5s1.4-0.6,2.2-0.6c1.6,0,4.1,1,4.1,5v6.9h-2.1v-6.7
			c0-1.9-0.7-3.5-2.7-3.5c-1.4,0-2.4,1-2.8,2.1c-0.1,0.3-0.1,0.6-0.1,1v7h-2.1L492.3,473.5L492.3,473.5z"/>
		<path d="M516.2,484.6c0,4.3-3,6.2-5.8,6.2c-3.1,0-5.6-2.3-5.6-6c0-3.9,2.5-6.2,5.8-6.2C513.9,478.6,516.2,481.1,516.2,484.6z
			 M507,484.7c0,2.5,1.5,4.5,3.5,4.5s3.5-1.9,3.5-4.5c0-2-1-4.5-3.5-4.5S507,482.5,507,484.7z"/>
		<path d="M528.6,487.4c0,1.2,0,2.3,0.1,3.2h-1.9l-0.1-1.9l0,0c-0.6,0.9-1.8,2.2-3.8,2.2c-1.8,0-4-1-4-5.1V479h2.1v6.4
			c0,2.2,0.7,3.7,2.6,3.7c1.4,0,2.4-1,2.8-1.9c0.1-0.3,0.2-0.7,0.2-1.1V479h2.1L528.6,487.4L528.6,487.4z"/>
		<path d="M531.8,488.4c0.6,0.4,1.7,0.8,2.8,0.8c1.5,0,2.3-0.8,2.3-1.7c0-1-0.6-1.6-2.2-2.1c-2.1-0.7-3.1-1.9-3.1-3.3
			c0-1.9,1.5-3.4,4-3.4c1.2,0,2.2,0.3,2.9,0.7l-0.5,1.5c-0.5-0.3-1.3-0.7-2.4-0.7c-1.2,0-1.9,0.7-1.9,1.6c0,1,0.7,1.4,2.2,2
			c2,0.8,3,1.8,3,3.5c0,2-1.6,3.5-4.3,3.5c-1.3,0-2.4-0.3-3.3-0.8L531.8,488.4z"/>
		<path d="M542.7,485.1c0,2.9,1.9,4,4,4c1.5,0,2.4-0.3,3.2-0.6l0.4,1.5c-0.7,0.3-2,0.7-3.9,0.7c-3.6,0-5.7-2.4-5.7-5.9
			s2.1-6.3,5.4-6.3c3.8,0,4.8,3.3,4.8,5.5c0,0.4,0,0.8-0.1,1L542.7,485.1L542.7,485.1z M548.9,483.6c0-1.3-0.6-3.4-2.9-3.4
			c-2.1,0-3.1,2-3.2,3.4H548.9z"/>
		<path d="M553.3,488.4c0.6,0.4,1.7,0.8,2.8,0.8c1.5,0,2.3-0.8,2.3-1.7c0-1-0.6-1.6-2.2-2.1c-2.1-0.7-3.1-1.9-3.1-3.3
			c0-1.9,1.5-3.4,4-3.4c1.2,0,2.2,0.3,2.9,0.7l-0.5,1.5c-0.5-0.3-1.3-0.7-2.4-0.7c-1.2,0-1.9,0.7-1.9,1.6c0,1,0.7,1.4,2.2,2
			c2,0.8,3,1.8,3,3.5c0,2-1.6,3.5-4.3,3.5c-1.3,0-2.4-0.3-3.3-0.8L553.3,488.4z"/>
		<path d="M431.6,519.3l-0.2-1.5h-0.1c-0.6,0.9-1.9,1.7-3.6,1.7c-2.4,0-3.6-1.7-3.6-3.3c0-2.8,2.5-4.3,7-4.3v-0.2
			c0-1-0.3-2.7-2.6-2.7c-1.1,0-2.2,0.3-3,0.9l-0.5-1.4c1-0.6,2.4-1,3.8-1c3.6,0,4.4,2.4,4.4,4.8v4.3c0,1,0,2,0.2,2.8L431.6,519.3
			L431.6,519.3z M431.3,513.4c-2.3,0-4.9,0.4-4.9,2.6c0,1.4,0.9,2,2,2c1.5,0,2.5-1,2.8-1.9c0.1-0.2,0.1-0.5,0.1-0.7V513.4z"/>
		<path d="M436.7,510.8c0-1.2,0-2.2-0.1-3.1h1.9l0.1,1.9l0,0c0.6-1.1,1.9-2.2,3.8-2.2c1.6,0,4.1,1,4.1,4.9v6.9h-2.1v-6.7
			c0-1.9-0.7-3.4-2.7-3.4c-1.4,0-2.5,1-2.8,2.2c-0.1,0.3-0.1,0.6-0.1,1v7h-2.1L436.7,510.8L436.7,510.8z"/>
		<path d="M460.1,502.3v14c0,1,0,2.2,0.1,3h-1.9l-0.1-2l0,0c-0.6,1.3-2.1,2.3-4,2.3c-2.8,0-5-2.4-5-5.9c0-3.9,2.4-6.2,5.2-6.2
			c1.8,0,3,0.8,3.5,1.8l0,0v-6.9L460.1,502.3L460.1,502.3z M458,512.4c0-0.3,0-0.6-0.1-0.9c-0.3-1.3-1.5-2.4-3-2.4
			c-2.2,0-3.5,1.9-3.5,4.5c0,2.4,1.2,4.3,3.4,4.3c1.4,0,2.7-0.9,3.1-2.5c0.1-0.3,0.1-0.6,0.1-0.9V512.4z"/>
		<path d="M468.7,502.3h2.1v7.2l0,0c0.3-0.6,0.9-1.1,1.5-1.5s1.4-0.6,2.2-0.6c1.6,0,4.1,1,4.1,5v6.9h-2.1v-6.7
			c0-1.9-0.7-3.5-2.7-3.5c-1.4,0-2.4,1-2.8,2.1c-0.1,0.3-0.1,0.6-0.1,1v7h-2.1L468.7,502.3L468.7,502.3z"/>
		<path d="M483.2,513.9c0,2.9,1.9,4,4,4c1.5,0,2.4-0.3,3.2-0.6l0.4,1.5c-0.7,0.3-2,0.7-3.9,0.7c-3.6,0-5.7-2.4-5.7-5.9
			s2.1-6.3,5.4-6.3c3.8,0,4.8,3.3,4.8,5.5c0,0.4,0,0.8-0.1,1L483.2,513.9L483.2,513.9z M489.3,512.4c0-1.3-0.6-3.4-2.9-3.4
			c-2.1,0-3.1,2-3.2,3.4H489.3z"/>
		<path d="M500.4,519.3l-0.2-1.5h-0.1c-0.6,0.9-1.9,1.7-3.6,1.7c-2.4,0-3.6-1.7-3.6-3.3c0-2.8,2.5-4.3,7-4.3v-0.2
			c0-1-0.3-2.7-2.6-2.7c-1.1,0-2.2,0.3-3,0.9l-0.5-1.4c1-0.6,2.4-1,3.8-1c3.6,0,4.4,2.4,4.4,4.8v4.3c0,1,0,2,0.2,2.8L500.4,519.3
			L500.4,519.3z M500.1,513.4c-2.3,0-4.9,0.4-4.9,2.6c0,1.4,0.9,2,2,2c1.5,0,2.5-1,2.8-1.9c0.1-0.2,0.1-0.5,0.1-0.7V513.4
			L500.1,513.4z"/>
		<path d="M515.6,502.3v14c0,1,0,2.2,0.1,3h-1.9l-0.1-2l0,0c-0.6,1.3-2.1,2.3-4,2.3c-2.8,0-5-2.4-5-5.9c0-3.9,2.4-6.2,5.2-6.2
			c1.8,0,3,0.8,3.5,1.8l0,0v-6.9L515.6,502.3L515.6,502.3z M513.5,512.4c0-0.3,0-0.6-0.1-0.9c-0.3-1.3-1.5-2.4-3-2.4
			c-2.2,0-3.5,1.9-3.5,4.5c0,2.4,1.2,4.3,3.4,4.3c1.4,0,2.7-0.9,3.1-2.5c0.1-0.3,0.1-0.6,0.1-0.9V512.4L513.5,512.4z"/>
		<path d="M534.7,513.4c0,4.3-3,6.2-5.8,6.2c-3.1,0-5.6-2.3-5.6-6c0-3.9,2.5-6.2,5.8-6.2C532.5,507.4,534.7,509.9,534.7,513.4z
			 M525.5,513.5c0,2.5,1.5,4.5,3.5,4.5s3.5-1.9,3.5-4.5c0-2-1-4.5-3.5-4.5C526.6,509,525.5,511.3,525.5,513.5z"/>
		<path d="M551.9,504.3c-0.5-0.3-1.4-0.6-2.4-0.6c-2.2,0-2.9,1.6-2.9,3.4v0.6h6.8v11.6h-2.1v-10h-4.6v10h-2.1v-10h-4.9v10h-2.1v-10
			H536v-1.6h1.6v-0.4c0-1.5,0.4-2.9,1.4-3.9c0.7-0.7,1.7-1.1,3-1.1c0.8,0,1.6,0.3,2,0.5l-0.6,1.6c-0.4-0.2-0.9-0.4-1.5-0.4
			c-0.7,0-1.2,0.2-1.5,0.6c-0.6,0.6-0.8,1.7-0.8,2.7v0.5h4.9v-0.6c0-3.1,1.8-5.1,5.1-5.1c1.1,0,2.3,0.3,2.9,0.7L551.9,504.3z"/>
		<path d="M565.2,518.9c-0.6,0.3-1.8,0.7-3.3,0.7c-3.5,0-5.8-2.4-5.8-5.9c0-3.6,2.4-6.2,6.2-6.2c1.2,0,2.4,0.3,2.9,0.6l-0.5,1.6
			c-0.5-0.3-1.3-0.6-2.4-0.6c-2.7,0-4.1,2-4.1,4.4c0,2.7,1.7,4.3,4,4.3c1.2,0,2-0.3,2.6-0.6L565.2,518.9z"/>
		<path d="M568.7,513.9c0,2.9,1.9,4,4,4c1.5,0,2.4-0.3,3.2-0.6l0.4,1.5c-0.7,0.3-2,0.7-3.9,0.7c-3.6,0-5.7-2.4-5.7-5.9
			s2.1-6.3,5.4-6.3c3.8,0,4.8,3.3,4.8,5.5c0,0.4,0,0.8-0.1,1L568.7,513.9L568.7,513.9z M574.9,512.4c0-1.3-0.6-3.4-2.9-3.4
			c-2.1,0-3.1,2-3.2,3.4H574.9z"/>
	</g>
	<g>
		<path d="M60,246.6c1.1-0.2,2.6-0.3,4-0.3c2.2,0,3.7,0.4,4.7,1.3c0.8,0.7,1.3,1.8,1.3,3.1c0,2.1-1.3,3.6-3,4.1v0.1
			c1.2,0.4,2,1.6,2.4,3.3c0.5,2.3,0.9,3.8,1.2,4.4h-2.2c-0.3-0.5-0.6-1.8-1.1-3.9c-0.5-2.2-1.3-3.1-3.2-3.1h-2v7H60V246.6z
			 M62.1,253.9h2.1c2.2,0,3.6-1.2,3.6-3.1c0-2.1-1.5-3-3.7-3c-1,0-1.7,0.1-2.1,0.2L62.1,253.9L62.1,253.9z"/>
		<path d="M74.1,257.1c0,2.9,1.9,4,4,4c1.5,0,2.4-0.3,3.2-0.6l0.4,1.5c-0.7,0.3-2,0.7-3.9,0.7c-3.6,0-5.7-2.4-5.7-5.9
			s2.1-6.3,5.4-6.3c3.8,0,4.8,3.3,4.8,5.5c0,0.4,0,0.8-0.1,1L74.1,257.1L74.1,257.1z M80.3,255.6c0-1.3-0.6-3.4-2.9-3.4
			c-2.1,0-3.1,2-3.2,3.4H80.3z"/>
		<path d="M87.5,247.6v3.3h3v1.6h-3v6.3c0,1.4,0.4,2.3,1.6,2.3c0.6,0,1-0.1,1.2-0.1l0.1,1.6c-0.4,0.2-1.1,0.3-1.9,0.3
			c-1,0-1.8-0.3-2.3-0.9c-0.6-0.6-0.8-1.7-0.8-3v-6.3h-1.8v-1.6h1.8v-2.8L87.5,247.6z"/>
		<path d="M99.3,262.5l-0.2-1.5H99c-0.6,0.9-1.9,1.7-3.6,1.7c-2.4,0-3.6-1.7-3.6-3.3c0-2.8,2.5-4.3,7-4.3v-0.2c0-1-0.3-2.7-2.6-2.7
			c-1.1,0-2.2,0.3-3,0.9l-0.5-1.4c1-0.6,2.4-1,3.8-1c3.6,0,4.4,2.4,4.4,4.8v4.3c0,1,0,2,0.2,2.8L99.3,262.5L99.3,262.5z M99,256.6
			c-2.3,0-4.9,0.4-4.9,2.6c0,1.4,0.9,2,2,2c1.5,0,2.5-1,2.8-1.9c0.1-0.2,0.1-0.5,0.1-0.7V256.6z"/>
		<path d="M106.8,247.6c0,0.7-0.5,1.3-1.3,1.3c-0.7,0-1.3-0.6-1.3-1.3s0.6-1.3,1.3-1.3C106.3,246.3,106.8,246.9,106.8,247.6z
			 M104.5,262.5v-11.6h2.1v11.6H104.5z"/>
		<path d="M110.1,245.5h2.1v17h-2.1V245.5z"/>
		<path d="M131.3,256.6c0,4.3-3,6.2-5.8,6.2c-3.1,0-5.6-2.3-5.6-6c0-3.9,2.5-6.2,5.8-6.2C129.1,250.6,131.3,253.1,131.3,256.6z
			 M122.1,256.7c0,2.5,1.5,4.5,3.5,4.5s3.5-1.9,3.5-4.5c0-2-1-4.5-3.5-4.5C123.2,252.2,122.1,254.5,122.1,256.7z"/>
		<path d="M143.7,259.4c0,1.2,0,2.3,0.1,3.2H142l-0.1-1.9l0,0c-0.6,0.9-1.8,2.2-3.8,2.2c-1.8,0-4-1-4-5.1V251h2.1v6.4
			c0,2.2,0.7,3.7,2.6,3.7c1.4,0,2.4-1,2.8-1.9c0.1-0.3,0.2-0.7,0.2-1.1V251h2.1L143.7,259.4L143.7,259.4z"/>
		<path d="M149.8,247.6v3.3h3v1.6h-3v6.3c0,1.4,0.4,2.3,1.6,2.3c0.6,0,1-0.1,1.2-0.1l0.1,1.6c-0.4,0.2-1.1,0.3-1.9,0.3
			c-1,0-1.8-0.3-2.3-0.9c-0.6-0.6-0.8-1.7-0.8-3v-6.3h-1.8v-1.6h1.8v-2.8L149.8,247.6z"/>
		<path d="M155.2,245.5h2.1v17h-2.1V245.5z"/>
		<path d="M162,257.1c0,2.9,1.9,4,4,4c1.5,0,2.4-0.3,3.2-0.6l0.4,1.5c-0.7,0.3-2,0.7-3.9,0.7c-3.6,0-5.7-2.4-5.7-5.9
			s2.1-6.3,5.4-6.3c3.8,0,4.8,3.3,4.8,5.5c0,0.4,0,0.8-0.1,1L162,257.1L162,257.1z M168.2,255.6c0-1.3-0.6-3.4-2.9-3.4
			c-2.1,0-3.1,2-3.2,3.4H168.2z"/>
		<path d="M175.4,247.6v3.3h3v1.6h-3v6.3c0,1.4,0.4,2.3,1.6,2.3c0.6,0,1-0.1,1.2-0.1l0.1,1.6c-0.4,0.2-1.1,0.3-1.9,0.3
			c-1,0-1.8-0.3-2.3-0.9c-0.6-0.6-0.8-1.7-0.8-3v-6.3h-1.8v-1.6h1.8v-2.8L175.4,247.6z"/>
		<path d="M180.5,260.4c0.6,0.4,1.7,0.8,2.8,0.8c1.5,0,2.3-0.8,2.3-1.7c0-1-0.6-1.6-2.2-2.1c-2.1-0.7-3.1-1.9-3.1-3.3
			c0-1.9,1.5-3.4,4-3.4c1.2,0,2.2,0.3,2.9,0.7l-0.5,1.5c-0.5-0.3-1.3-0.7-2.4-0.7c-1.2,0-1.9,0.7-1.9,1.6c0,1,0.7,1.4,2.2,2
			c2,0.8,3,1.8,3,3.5c0,2-1.6,3.5-4.3,3.5c-1.3,0-2.4-0.3-3.3-0.8L180.5,260.4z"/>
	</g>
	<g>
		<g>
			
				<polygon id="Fill-1_2_" fill="#C4E2F6" stroke="#347EC0" stroke-width="1.5" stroke-linecap="round" stroke-linejoin="round" stroke-miterlimit="10" points="
				429.7,386.2 429.7,392.7 436.3,392.7 514,392.7 521,392.7 521,386.4 475.1,367.1 			"/>
			
				<polyline id="Stroke-2_2_" fill="none" stroke="#347EC0" stroke-width="1.5" stroke-linecap="round" stroke-linejoin="round" points="
				436.3,392.7 429.7,392.7 429.7,386.2 475.1,367.1 521,386.4 521,392.7 514,392.7 			"/>
			<polygon id="Fill-4_2_" fill="#FFFFFF" stroke="#347EC0" stroke-width="1.5" stroke-miterlimit="10" points="436.3,388.6 
				436.3,448.1 514,448.1 514,388.6 475.1,373.9 			"/>
			
				<polygon id="Stroke-5_2_" fill="none" stroke="#347EC0" stroke-width="1.5" stroke-linecap="round" stroke-linejoin="round" points="
				514,448.1 436.3,448.1 436.3,388.6 475.2,373.9 514,388.6 			"/>
			
				<polygon id="Stroke-7_2_" fill="none" stroke="#347EC0" stroke-width="1.5" stroke-linecap="round" stroke-linejoin="round" points="
				451.8,401.4 461.6,401.4 461.6,391.6 451.8,391.6 			"/>
			
				<polygon id="Stroke-8_2_" fill="none" stroke="#347EC0" stroke-width="1.5" stroke-linecap="round" stroke-linejoin="round" points="
				470.5,401.4 480.2,401.4 480.2,391.6 470.5,391.6 			"/>
			
				<polygon id="Stroke-9_2_" fill="none" stroke="#347EC0" stroke-width="1.5" stroke-linecap="round" stroke-linejoin="round" points="
				489,401.4 498.8,401.4 498.8,391.6 489,391.6 			"/>
			
				<polygon id="Fill-10_2_" fill="#E0E4E8" stroke="#347EC0" stroke-width="1.5" stroke-linecap="round" stroke-linejoin="round" stroke-miterlimit="10" points="
				451.8,411 451.8,416.7 451.8,448.1 498.8,448.1 498.8,411 			"/>
			
				<polygon id="Stroke-11_2_" fill="#C4E2F6" stroke="#347EC0" stroke-width="1.5" stroke-linecap="round" stroke-linejoin="round" points="
				498.8,448.1 451.8,448.1 451.8,416.7 451.8,411 498.8,411 			"/>
			<path id="Stroke-13_2_" fill="none" stroke="#347EC0" stroke-width="1.5" stroke-linecap="round" stroke-linejoin="round" d="
				M498.8,416.9h-47"/>
			<path id="Stroke-14_2_" fill="none" stroke="#347EC0" stroke-width="1.5" stroke-linecap="round" stroke-linejoin="round" d="
				M498.8,423h-47"/>
			<path id="Stroke-15_2_" fill="none" stroke="#347EC0" stroke-width="1.5" stroke-linecap="round" stroke-linejoin="round" d="
				M498.8,429h-47"/>
			<path id="Stroke-16_2_" fill="#C6E2F3" stroke="#347EC0" stroke-width="1.5" stroke-linecap="round" stroke-linejoin="round" d="
				M498.8,435.2h-47"/>
			<path id="Stroke-17_2_" fill="none" stroke="#347EC0" stroke-width="1.5" stroke-linecap="round" stroke-linejoin="round" d="
				M498.8,441.6h-47"/>
		</g>
	</g>
	<g>
		<g>
			<path fill="#FFFFFF" d="M176.7,212.3v-50.8c2.2,0,4-1.8,4-4v-4l-8.1-19.2h-64.5l-8.1,19.2v4c0,2.2,1.8,4,4,4v50.8H176.7
				L176.7,212.3z"/>
			
				<line fill="none" stroke="#347EC0" stroke-width="1.5" stroke-linecap="round" stroke-linejoin="round" stroke-miterlimit="10" x1="98.8" y1="212.3" x2="182.1" y2="212.3"/>
			
				<line fill="none" stroke="#347EC0" stroke-width="1.5" stroke-linecap="round" stroke-linejoin="round" stroke-miterlimit="10" x1="104.2" y1="212.3" x2="104.2" y2="161.4"/>
			
				<line fill="none" stroke="#347EC0" stroke-width="1.5" stroke-linecap="round" stroke-linejoin="round" stroke-miterlimit="10" x1="176.7" y1="212.3" x2="176.7" y2="161.4"/>
			
				<path fill="none" stroke="#347EC0" stroke-width="1.5" stroke-linecap="round" stroke-linejoin="round" stroke-miterlimit="10" d="
				M172.7,156.1v1.3c0,2.2-1.8,4-4,4s-4-1.8-4-4v-1.3v1.3c0,2.2-1.8,4-4,4s-4-1.8-4-4v-1.3v1.3c0,2.2-1.8,4-4,4s-4-1.8-4-4v-1.3v1.3
				c0,2.2-1.8,4-4,4s-4-1.8-4-4v-1.3v1.3c0,2.2-1.8,4-4,4s-4-1.8-4-4v-1.3v1.3c0,2.2-1.8,4-4,4s-4-1.8-4-4v-1.3v1.3c0,2.2-1.8,4-4,4
				s-4-1.8-4-4v-1.3v1.3c0,2.2-1.8,4-4,4s-4-1.8-4-4v-1.3v1.3c0,2.2-1.8,4-4,4s-4-1.8-4-4v-4l8.1-19.2h64.5l8.1,19.2v4
				c0,2.2-1.8,4-4,4s-4-1.8-4-4L172.7,156.1L172.7,156.1z"/>
			
				<line fill="none" stroke="#347EC0" stroke-width="1.5" stroke-linecap="round" stroke-linejoin="round" stroke-miterlimit="10" x1="178.9" y1="150.7" x2="101.9" y2="150.7"/>
			
				<rect x="149.9" y="180.2" fill="none" stroke="#347EC0" stroke-width="1.5" stroke-linecap="round" stroke-linejoin="round" stroke-miterlimit="10" width="18.8" height="32.1"/>
			<rect x="112.3" y="180.2" fill="#BBDEF4" width="32.2" height="18.7"/>
			
				<rect x="112.3" y="180.2" fill="none" stroke="#347EC0" stroke-width="1.5" stroke-linecap="round" stroke-linejoin="round" stroke-miterlimit="10" width="32.2" height="18.7"/>
			
				<line fill="none" stroke="#347EC0" stroke-width="1.5" stroke-linecap="round" stroke-linejoin="round" stroke-miterlimit="10" x1="120.3" y1="185.5" x2="117.6" y2="188.2"/>
			
				<line fill="none" stroke="#347EC0" stroke-width="1.5" stroke-linecap="round" stroke-linejoin="round" stroke-miterlimit="10" x1="125.7" y1="186.9" x2="120.3" y2="192.2"/>
		</g>
		<g>
			<path fill="#FFFFFF" d="M150.2,227.2v-53.5c2.3,0,4.2-1.9,4.2-4.2v-4.2L146,145H78.2l-8.5,20.2v4.2c0,2.3,1.9,4.2,4.2,4.2v53.5
				h76.3V227.2z"/>
			
				<line fill="none" stroke="#347EC0" stroke-width="1.5" stroke-linecap="round" stroke-linejoin="round" stroke-miterlimit="10" x1="68.3" y1="227.2" x2="155.9" y2="227.2"/>
			
				<line fill="none" stroke="#347EC0" stroke-width="1.5" stroke-linecap="round" stroke-linejoin="round" stroke-miterlimit="10" x1="73.9" y1="227.2" x2="73.9" y2="173.7"/>
			
				<line fill="none" stroke="#347EC0" stroke-width="1.5" stroke-linecap="round" stroke-linejoin="round" stroke-miterlimit="10" x1="150.2" y1="227.2" x2="150.2" y2="173.7"/>
			
				<path fill="none" stroke="#347EC0" stroke-width="1.5" stroke-linecap="round" stroke-linejoin="round" stroke-miterlimit="10" d="
				M146,168.1v1.4c0,2.3-1.9,4.2-4.2,4.2s-4.2-1.9-4.2-4.2v-1.4v1.4c0,2.3-1.9,4.2-4.2,4.2s-4.2-1.9-4.2-4.2v-1.4v1.4
				c0,2.3-1.9,4.2-4.2,4.2s-4.2-1.9-4.2-4.2v-1.4v1.4c0,2.3-1.9,4.2-4.2,4.2c-2.3,0-4.2-1.9-4.2-4.2v-1.4v1.4c0,2.3-1.9,4.2-4.2,4.2
				s-4.2-1.9-4.2-4.2v-1.4v1.4c0,2.3-1.9,4.2-4.2,4.2s-4.2-1.9-4.2-4.2v-1.4v1.4c0,2.3-1.9,4.2-4.2,4.2c-2.3,0-4.2-1.9-4.2-4.2v-1.4
				v1.4c0,2.3-1.9,4.2-4.2,4.2s-4.2-1.9-4.2-4.2v-1.4v1.4c0,2.3-1.9,4.2-4.2,4.2s-4.2-1.9-4.2-4.2v-4.2l8.5-20.2H146l8.5,20.2v4.2
				c0,2.3-1.9,4.2-4.2,4.2s-4.2-1.9-4.2-4.2L146,168.1L146,168.1z"/>
			
				<line fill="none" stroke="#347EC0" stroke-width="1.5" stroke-linecap="round" stroke-linejoin="round" stroke-miterlimit="10" x1="152.5" y1="162.4" x2="71.5" y2="162.4"/>
			
				<rect x="122" y="193.4" fill="none" stroke="#347EC0" stroke-width="1.5" stroke-linecap="round" stroke-linejoin="round" stroke-miterlimit="10" width="19.8" height="33.8"/>
			<rect x="82.4" y="193.4" fill="#BBDEF4" width="33.9" height="19.7"/>
			
				<rect x="82.4" y="193.4" fill="none" stroke="#347EC0" stroke-width="1.5" stroke-linecap="round" stroke-linejoin="round" stroke-miterlimit="10" width="33.9" height="19.7"/>
			
				<line fill="none" stroke="#347EC0" stroke-width="1.5" stroke-linecap="round" stroke-linejoin="round" stroke-miterlimit="10" x1="90.9" y1="199" x2="88.1" y2="201.8"/>
			
				<line fill="none" stroke="#347EC0" stroke-width="1.5" stroke-linecap="round" stroke-linejoin="round" stroke-miterlimit="10" x1="96.5" y1="200.4" x2="90.9" y2="206.1"/>
		</g>
	</g>
	<g>
		<path fill="#231F20" d="M892.3,411c0-3.7,0.9-6.9,2.8-9.6c1.8-2.6,4.3-4.6,7.5-6c2.9-1.2,6.5-2.1,10.8-2.7
			c1.5-0.2,3.8-0.4,7.1-0.6v-1.4c0-3.5-0.4-5.8-1.1-7c-1.1-1.6-2.9-2.4-5.3-2.4h-0.6c-1.8,0.2-3.3,0.7-4.6,1.7s-2.1,2.3-2.5,4
			c-0.2,1.1-0.8,1.7-1.6,1.9l-9.3-1.1c-0.9-0.2-1.4-0.7-1.4-1.5c0-0.2,0-0.4,0.1-0.6c0.9-4.8,3.2-8.4,6.8-10.7
			c3.6-2.3,7.8-3.6,12.6-3.9h2c6.2,0,11,1.6,14.4,4.8c0.5,0.5,1,1.1,1.5,1.7s0.8,1.2,1.1,1.7s0.5,1.2,0.7,2.1s0.4,1.6,0.5,1.9
			c0.1,0.4,0.2,1.1,0.2,2.3c0.1,1.2,0.1,1.8,0.1,2.1v19.6c0,1.4,0.2,2.7,0.6,3.8c0.4,1.2,0.8,2,1.2,2.5s1,1.3,1.9,2.5
			c0.3,0.5,0.5,0.9,0.5,1.3s-0.2,0.8-0.6,1.1c-4.5,3.9-6.9,6-7.3,6.3c-0.6,0.5-1.4,0.5-2.3,0.2c-0.8-0.6-1.4-1.3-2-1.9s-1-1-1.2-1.3
			s-0.6-0.8-1.2-1.6c-0.5-0.8-0.9-1.3-1.1-1.6c-3,3.3-6,5.3-8.9,6.2c-1.8,0.5-4.1,0.8-6.8,0.8c-4.2,0-7.6-1.3-10.2-3.8
			C893.7,419.3,892.3,415.7,892.3,411z M906.3,409.4c0,2.1,0.5,3.8,1.6,5.1c1.1,1.3,2.5,1.9,4.3,1.9c0.2,0,0.4,0,0.7-0.1
			s0.5-0.1,0.6-0.1c2.3-0.6,4-2.1,5.3-4.4c0.6-1,1-2.1,1.3-3.4s0.5-2.2,0.5-3s0-2,0-3.7v-2c-3.1,0-5.5,0.2-7.1,0.6
			C908.7,401.7,906.3,404.7,906.3,409.4z"/>
		<path fill="#FAA41D" d="M868,430.1c0.3-0.4,0.7-0.5,1.3-0.1c13.5,7.8,28.2,11.7,44.1,11.7c10.6,0,21-2,31.3-5.9
			c0.3-0.1,0.7-0.3,1.2-0.5s0.9-0.4,1.1-0.5c0.8-0.3,1.4-0.2,1.9,0.5s0.3,1.2-0.4,1.8c-1,0.7-2.2,1.5-3.7,2.4
			c-4.6,2.8-9.8,4.9-15.6,6.4s-11.3,2.3-16.8,2.3c-8.4,0-16.4-1.5-23.9-4.4s-14.2-7.1-20.2-12.4c-0.3-0.3-0.5-0.5-0.5-0.8
			C867.8,430.4,867.9,430.2,868,430.1z"/>
		<path fill="#FAA41D" d="M940.3,431.5c0.1-0.2,0.3-0.4,0.5-0.6c1.3-0.9,2.6-1.5,3.9-1.9c2.1-0.5,4-0.8,6-0.9c0.5-0.1,1.1,0,1.5,0.1
			c2.4,0.2,3.9,0.6,4.4,1.2c0.2,0.3,0.3,0.8,0.3,1.5v0.6c0,1.9-0.5,4.1-1.5,6.7s-2.5,4.6-4.3,6.2c-0.3,0.2-0.5,0.3-0.7,0.3
			c-0.1,0-0.2,0-0.3-0.1c-0.3-0.2-0.4-0.5-0.2-0.9c2-4.7,3-8,3-9.8c0-0.6-0.1-1-0.3-1.3c-0.5-0.6-2.1-1-4.5-1c-0.9,0-2,0.1-3.2,0.2
			c-1.3,0.2-2.6,0.3-3.7,0.5c-0.3,0-0.5-0.1-0.6-0.2s-0.1-0.2-0.1-0.3C940.2,431.6,940.2,431.6,940.3,431.5z"/>
	</g>
	<g>
		<path fill="none" stroke="#347EC0" stroke-width="1.5" stroke-miterlimit="10" d="M861.6,231.6c-3.6,0-6.5-2.7-6.5-6.1v-16.2
			c0-0.7-3.8-15-3.8-15.5v-30.1c0-0.3,0.1-0.5,0.2-0.7l8.4-11.9c0.2-0.3,0.6-0.5,0.9-0.5h70.6c0.4,0,0.7,0.2,0.9,0.5l8.4,11.9
			c0.1,0.2,0.2,0.4,0.2,0.7v30.1c0,0.4-3.8,14.8-3.8,15.5v16.2c0,3.4-2.9,6.1-6.5,6.1H861.6L861.6,231.6z"/>
		<path fill="none" stroke="#347EC0" stroke-width="1.5" stroke-miterlimit="10" d="M922.2,202.1h-51.6c-1.4,0-2.5-1.1-2.5-2.5
			v-29.2c0-1.4,1.1-2.5,2.5-2.5h51.6c1.4,0,2.5,1.1,2.5,2.5v29.2C924.6,201,923.5,202.1,922.2,202.1z"/>
		<path fill="#BBDEF4" stroke="#347EC0" stroke-width="1.5" stroke-miterlimit="10" d="M852.2,161.8L852.2,161.8l7.6-10.8
			c0.2-0.3,0.6-0.5,0.9-0.5h9.7c0.8,0,1.3,0.8,1.1,1.6l-3.4,9.5c0,0.1-0.1,0.3-0.1,0.4v9.2c0,4.1-3.6,7.5-8,7.5s-8-3.4-8-7.5
			L852.2,161.8L852.2,161.8L852.2,161.8z M870.1,161.8v9.4c0,4.1,3.6,7.5,8,7.5s8-3.4,8-7.5v-9.3c0-0.1,0-0.1,0-0.2l1.7-9.8
			c0.1-0.7-0.4-1.4-1.1-1.4h-11.8c-0.5,0-0.9,0.3-1.1,0.8L870.1,161.8z M888,161.8v9.4c0,4.1,3.6,7.5,8,7.5s8-3.4,8-7.5v-9.3
			c0-0.1,0-0.1,0-0.2l-1.8-10.2c-0.1-0.6-0.6-1-1.1-1h-10c-0.6,0-1,0.4-1.1,1L888,161.8z M905.9,161.8v9.4c0,4.1,3.6,7.5,8,7.5
			s8-3.4,8-7.5V162c0-0.1,0-0.3-0.1-0.4l-3.6-10.3c-0.2-0.5-0.6-0.8-1.1-0.8h-11.8c-0.7,0-1.3,0.7-1.1,1.4L905.9,161.8z
			 M923.8,161.8v9.4c0,4.1,3.6,7.5,8,7.5s8-3.4,8-7.5v-9c0-0.3-0.1-0.5-0.2-0.7l-7.4-10.5c-0.2-0.3-0.6-0.5-0.9-0.5h-9.7
			c-0.8,0-1.3,0.8-1.1,1.6L923.8,161.8z"/>
	</g>
	<g>
		<rect x="50.9" y="428.1" fill="none" stroke="#347EC0" stroke-width="1.5" stroke-miterlimit="10" width="126.1" height="17.1"/>
		<path fill="#BBDEF4" stroke="#347EC0" stroke-width="1.5" stroke-miterlimit="10" d="M77.4,434.5c-6.9,0-12.5,5.6-12.5,12.5
			s5.6,12.5,12.5,12.5s12.5-5.6,12.5-12.5C89.8,440.1,84.2,434.5,77.4,434.5z"/>
		<path fill="#FFFFFF" stroke="#347EC0" stroke-width="1.5" stroke-miterlimit="10" d="M77.4,441c-3.3,0-6,2.7-6,6s2.7,6,6,6
			s6-2.7,6-6S80.7,441,77.4,441"/>
		<path fill="#BBDEF4" stroke="#347EC0" stroke-width="1.5" stroke-miterlimit="10" d="M156,434.5c-6.9,0-12.5,5.6-12.5,12.5
			s5.6,12.5,12.5,12.5s12.5-5.6,12.5-12.5C168.4,440.1,162.9,434.5,156,434.5z"/>
		<path fill="#FFFFFF" stroke="#347EC0" stroke-width="1.5" stroke-miterlimit="10" d="M156,441c-3.3,0-6,2.7-6,6s2.7,6,6,6
			s6-2.7,6-6S159.3,441,156,441"/>
		<polygon fill="none" stroke="#347EC0" stroke-width="1.5" stroke-miterlimit="10" points="177,378.5 177,428.1 50.9,428.1 
			50.9,419.3 65,408.4 89.8,408.4 89.8,378.5 		"/>
		<polygon fill="none" stroke="#347EC0" stroke-width="1.5" stroke-miterlimit="10" points="89.8,378.5 78.4,378.5 65,408.4 
			89.8,408.4 		"/>
		<rect x="99.1" y="388.2" fill="none" stroke="#347EC0" stroke-width="1.5" stroke-miterlimit="10" width="68.6" height="28.6"/>
		<path fill="#BBDEF4" stroke="#347EC0" stroke-width="1.5" stroke-miterlimit="10" d="M110.5,398.2c6.3,0,11.4-4.5,11.4-10H99.1
			C99.1,393.7,104.2,398.2,110.5,398.2z"/>
		<path fill="#BBDEF4" stroke="#347EC0" stroke-width="1.5" stroke-miterlimit="10" d="M133.4,398.2c6.3,0,11.4-4.5,11.4-10h-22.9
			C121.9,393.7,127.1,398.2,133.4,398.2z"/>
		<path fill="#BBDEF4" stroke="#347EC0" stroke-width="1.5" stroke-miterlimit="10" d="M156.2,398.2c6.3,0,11.4-4.5,11.4-10h-22.9
			C144.8,393.7,149.9,398.2,156.2,398.2z"/>
		<line fill="none" stroke="#347EC0" stroke-width="1.5" stroke-miterlimit="10" x1="182.6" y1="430" x2="212.6" y2="430"/>
		<line fill="none" stroke="#347EC0" stroke-width="1.5" stroke-miterlimit="10" x1="182.6" y1="436.7" x2="203.5" y2="436.7"/>
		<line fill="none" stroke="#347EC0" stroke-width="1.5" stroke-miterlimit="10" x1="182.6" y1="443.4" x2="193" y2="443.4"/>
	</g>
</g>
</svg>
